<svg width="100" height="100" viewBox="0 0 100 100" fill="none" xmlns="http://www.w3.org/2000/svg">
<path d="M0 50C0 22.3858 22.3858 0 50 0C77.6142 0 100 22.3858 100 50C100 77.6142 77.6142 100 50 100C22.3858 100 0 77.6142 0 50Z" fill="#FC7B33"/>
<mask id="path-2-inside-1_1113:25384" fill="white">
<path d="M68.333 54.5835C68.333 57.0458 67.848 59.484 66.9058 61.7588C65.9635 64.0337 64.5824 66.1007 62.8413 67.8417C61.1002 69.5828 59.0332 70.964 56.7583 71.9062C54.4835 72.8485 52.0453 73.3335 49.583 73.3335C47.1207 73.3335 44.6825 72.8485 42.4077 71.9062C40.1328 70.964 38.0659 69.5828 36.3248 67.8417C34.5837 66.1006 33.2025 64.0337 32.2603 61.7588C31.318 59.484 30.833 57.0458 30.833 54.5835L49.583 54.5835H68.333Z"/>
</mask>
<path d="M68.333 54.5835C68.333 57.0458 67.848 59.484 66.9058 61.7588C65.9635 64.0337 64.5824 66.1007 62.8413 67.8417C61.1002 69.5828 59.0332 70.964 56.7583 71.9062C54.4835 72.8485 52.0453 73.3335 49.583 73.3335C47.1207 73.3335 44.6825 72.8485 42.4077 71.9062C40.1328 70.964 38.0659 69.5828 36.3248 67.8417C34.5837 66.1006 33.2025 64.0337 32.2603 61.7588C31.318 59.484 30.833 57.0458 30.833 54.5835L49.583 54.5835H68.333Z" stroke="white" stroke-width="2" mask="url(#path-2-inside-1_1113:25384)"/>
<path d="M38.6667 35.0001C38.6667 37.9456 36.2789 40.3334 33.3333 40.3334C30.3878 40.3334 28 37.9456 28 35.0001C28 32.0546 30.3878 29.6667 33.3333 29.6667C36.2789 29.6667 38.6667 32.0546 38.6667 35.0001Z" stroke="white"/>
<path d="M71.1667 35.0001C71.1667 37.9456 68.7789 40.3334 65.8333 40.3334C62.8878 40.3334 60.5 37.9456 60.5 35.0001C60.5 32.0546 62.8878 29.6667 65.8333 29.6667C68.7789 29.6667 71.1667 32.0546 71.1667 35.0001Z" stroke="white"/>
<line x1="45.3694" y1="48.9794" x2="52.2372" y2="31.9811" stroke="white"/>
</svg>
