<svg width="51" height="50" viewBox="0 0 51 50" fill="none" xmlns="http://www.w3.org/2000/svg">
<g clip-path="url(#clip0)">
<path d="M40.8035 15.0961C35.3892 6.75874 24.2413 4.38918 15.9039 9.8035C7.5666 15.2178 5.19704 26.3657 10.6114 34.7031C16.0257 43.0404 27.1736 45.41 35.5109 39.9956C43.8483 34.5813 46.2178 23.4334 40.8035 15.0961Z" fill="#48C5B5"/>
<g clip-path="url(#clip1)">
<path d="M19.1963 16.2502L16.9014 30.6181M30.9605 34.3655L16.9014 30.6181M16.9014 30.6181L34.5135 19.1807" stroke="white" stroke-width="2"/>
</g>
</g>
<defs>
<clipPath id="clip0">
<path d="M40.8035 15.0961C35.3892 6.75874 24.2413 4.38918 15.9039 9.8035C7.5666 15.2178 5.19704 26.3657 10.6114 34.7031C16.0257 43.0404 27.1736 45.41 35.5109 39.9956C43.8483 34.5813 46.2178 23.4334 40.8035 15.0961Z" fill="white"/>
</clipPath>
<clipPath id="clip1">
<rect width="21.6" height="21.6" fill="white" transform="matrix(-0.838671 0.544639 0.544639 0.838671 28.883 9.95972)"/>
</clipPath>
</defs>
</svg>
