<svg width="107" height="89" viewBox="0 0 107 89" fill="none" xmlns="http://www.w3.org/2000/svg">
<mask id="path-3-inside-1" fill="white">
<path d="M86.8295 61.0803C86.9919 62.2356 86.9195 63.4122 86.6167 64.5432C86.3138 65.6741 85.7863 66.7371 85.0643 67.6716C84.3423 68.6061 83.44 69.3937 82.4088 69.9894C81.3776 70.5852 80.2378 70.9774 79.0544 71.1437C77.871 71.31 76.6672 71.2472 75.5118 70.9587C74.3563 70.6703 73.2718 70.1619 72.3202 69.4627C71.3686 68.7634 70.5686 67.8869 69.9657 66.8833C69.3628 65.8797 68.969 64.7685 68.8066 63.6133L77.8181 62.3468L86.8295 61.0803Z"/>
</mask>
<path d="M86.8295 61.0803C86.9919 62.2356 86.9195 63.4122 86.6167 64.5432C86.3138 65.6741 85.7863 66.7371 85.0643 67.6716C84.3423 68.6061 83.44 69.3937 82.4088 69.9894C81.3776 70.5852 80.2378 70.9774 79.0544 71.1437C77.871 71.31 76.6672 71.2472 75.5118 70.9587C74.3563 70.6703 73.2718 70.1619 72.3202 69.4627C71.3686 68.7634 70.5686 67.8869 69.9657 66.8833C69.3628 65.8797 68.969 64.7685 68.8066 63.6133L77.8181 62.3468L86.8295 61.0803Z" stroke="#48C5B5" stroke-width="4" mask="url(#path-3-inside-1)"/>
<path d="M72.0987 53.7425C72.255 54.8546 71.4802 55.8828 70.3681 56.039C69.2561 56.1953 68.2279 55.4205 68.0716 54.3085C67.9153 53.1964 68.6901 52.1682 69.8022 52.012C70.9142 51.8557 71.9424 52.6305 72.0987 53.7425Z" stroke="#48C5B5" stroke-width="2"/>
<path d="M87.1173 51.6317C87.2735 52.7437 86.4987 53.7719 85.3867 53.9282C84.2746 54.0845 83.2464 53.3097 83.0902 52.1976C82.9339 51.0856 83.7087 50.0574 84.8207 49.9011C85.9328 49.7448 86.961 50.5196 87.1173 51.6317Z" stroke="#48C5B5" stroke-width="2"/>
<path d="M77.0244 47.3615L81.5653 57.0773L74.162 60.4866" stroke="#48C5B5" stroke-width="2"/>
<path d="M80.8448 83.8852C67.1721 85.8068 54.5303 76.2805 52.6088 62.6078L50.6282 62.8861C52.7035 77.6527 66.3566 87.941 81.1231 85.8657L80.8448 83.8852ZM102.122 55.6491C104.044 69.3219 94.5175 81.9636 80.8448 83.8852L81.1231 85.8657C95.8897 83.7904 106.178 70.1374 104.103 55.3708L102.122 55.6491ZM73.8861 34.3718C87.5589 32.4502 100.201 41.9764 102.122 55.6491L104.103 55.3708C102.027 40.6042 88.3744 30.3159 73.6078 32.3912L73.8861 34.3718ZM73.6078 32.3912C58.8412 34.4665 48.5529 48.1196 50.6282 62.8861L52.6088 62.6078C50.6872 48.935 60.2134 36.2933 73.8861 34.3718L73.6078 32.3912Z" fill="#48C5B5"/>
<path d="M2.08257 21.9163C3.14154 9.81225 13.8123 0.858461 25.9163 1.91743V1.91743C38.0203 2.97639 46.9741 13.6471 45.9151 25.7511V25.7511C44.8562 37.8552 34.1855 46.809 22.0814 45.75V45.75C9.9774 44.691 1.02361 34.0203 2.08257 21.9163V21.9163Z" fill="#D886FF"/>
<path d="M30.0182 29.6748C32.2182 28.4234 33.7087 26.4463 33.9124 24.1171C34.2904 19.7972 30.0995 15.9018 24.5518 15.4164C19.0041 14.9311 14.2005 18.0396 13.8225 22.3594C13.4446 26.6793 17.6355 30.5748 23.1832 31.0601C23.9242 31.125 24.652 31.1257 25.3578 31.0679L31.0897 34.0237C29.6332 31.9471 30.0182 29.6748 30.0182 29.6748Z" stroke="white" stroke-width="2"/>
</svg>
