<svg width="158" height="118" viewBox="0 0 158 118" fill="none" xmlns="http://www.w3.org/2000/svg">
<path d="M48.4259 87.5192C50.9521 75.6345 43.3655 63.9521 31.4808 61.4259V61.4259C19.596 58.8998 7.91363 66.4864 5.38745 78.3711V78.3711C2.86126 90.2559 10.4479 101.938 22.3326 104.464V104.464C34.2174 106.991 45.8998 99.404 48.4259 87.5192V87.5192Z" fill="#D886FF"/>
<mask id="path-2-inside-1" fill="white">
<path d="M18.9558 83.3169C18.7505 84.2824 18.7421 85.2799 18.931 86.2524C19.1199 87.2249 19.5024 88.1533 20.0567 88.9847C20.6109 89.8161 21.3261 90.5342 22.1614 91.0979C22.9966 91.6616 23.9356 92.06 24.9247 92.2702C25.9138 92.4805 26.9336 92.4985 27.9259 92.3232C28.9183 92.1479 29.8637 91.7828 30.7082 91.2488C31.5527 90.7147 32.2797 90.0221 32.8479 89.2105C33.416 88.3989 33.814 87.4843 34.0192 86.5187L26.4875 84.9178L18.9558 83.3169Z"/>
</mask>
<path d="M18.9558 83.3169C18.7505 84.2824 18.7421 85.2799 18.931 86.2524C19.1199 87.2249 19.5024 88.1533 20.0567 88.9847C20.6109 89.8161 21.3261 90.5342 22.1614 91.0979C22.9966 91.6616 23.9356 92.06 24.9247 92.2702C25.9138 92.4805 26.9336 92.4985 27.9259 92.3232C28.9183 92.1479 29.8637 91.7828 30.7082 91.2488C31.5527 90.7147 32.2797 90.0221 32.8479 89.2105C33.416 88.3989 33.814 87.4843 34.0192 86.5187L26.4875 84.9178L18.9558 83.3169Z" stroke="white" stroke-width="4" mask="url(#path-2-inside-1)"/>
<path d="M19.0077 76.0182C19.3024 74.6316 20.6654 73.7465 22.0519 74.0413C23.4385 74.336 24.3236 75.6989 24.0289 77.0855" stroke="white" stroke-width="2"/>
<path d="M31.9188 78.7626C32.2136 77.3761 33.5765 76.491 34.9631 76.7857C36.3496 77.0804 37.2347 78.4434 36.94 79.8299" stroke="white" stroke-width="2"/>
<path d="M26.1895 80.5438C26.0518 81.192 26.4656 81.8293 27.1138 81.9671C27.7621 82.1048 28.3993 81.691 28.5371 81.0428C28.6749 80.3945 28.2611 79.7573 27.6128 79.6195C26.9646 79.4817 26.3273 79.8955 26.1895 80.5438Z" stroke="white" stroke-width="2"/>
<path d="M37.9532 28.0682C36.8745 43.4945 48.5055 56.8745 63.9318 57.9532V57.9532C79.3581 59.0319 92.7381 47.4009 93.8168 31.9746V31.9746C94.8955 16.5483 83.2645 3.16831 67.8382 2.08959V2.08959C52.4119 1.01088 39.0319 12.6419 37.9532 28.0682V28.0682Z" fill="white"/>
<g clip-path="url(#clip0)">
<path d="M64.7129 46.7805L67.0567 13.2624" stroke="#017AFF" stroke-width="2"/>
<path d="M49.126 28.8495L82.6441 31.1933" stroke="#017AFF" stroke-width="2"/>
<path d="M53.4326 40.8458L78.7909 18.8022" stroke="#017AFF" stroke-width="2"/>
<path d="M55.0605 17.5693L77.1041 42.9276" stroke="#017AFF" stroke-width="2"/>
</g>
<g clip-path="url(#clip1)">
<mask id="path-13-inside-2" fill="white">
<path d="M105.092 76.0537C104.601 77.4029 104.387 78.838 104.462 80.277C104.538 81.716 104.901 83.1307 105.531 84.4405C106.161 85.7502 107.046 86.9293 108.135 87.9103C109.224 88.8914 110.495 89.6553 111.877 90.1583C113.26 90.6613 114.725 90.8937 116.19 90.8422C117.655 90.7906 119.09 90.4561 120.415 89.8578C121.739 89.2595 122.927 88.409 123.909 87.355C124.892 86.3011 125.65 85.0641 126.141 83.715L115.617 79.8843L105.092 76.0537Z"/>
</mask>
<path d="M105.092 76.0537C104.601 77.4029 104.387 78.838 104.462 80.277C104.538 81.716 104.901 83.1307 105.531 84.4405C106.161 85.7502 107.046 86.9293 108.135 87.9103C109.224 88.8914 110.495 89.6553 111.877 90.1583C113.26 90.6613 114.725 90.8937 116.19 90.8422C117.655 90.7906 119.09 90.4561 120.415 89.8578C121.739 89.2595 122.927 88.409 123.909 87.355C124.892 86.3011 125.65 85.0641 126.141 83.715L115.617 79.8843L105.092 76.0537Z" stroke="#48C5B5" stroke-width="4" mask="url(#path-13-inside-2)"/>
<path d="M124.487 70.9105C123.971 72.329 124.702 73.8975 126.121 74.4138C127.539 74.9301 129.108 74.1987 129.624 72.7802C130.141 71.3616 129.409 69.7931 127.991 69.2768C126.572 68.7605 125.004 69.4919 124.487 70.9105Z" stroke="#48C5B5" stroke-width="2"/>
<path d="M106.946 64.5261C106.43 65.9446 107.161 67.5131 108.58 68.0294C109.998 68.5457 111.567 67.8143 112.083 66.3958C112.6 64.9772 111.868 63.4087 110.45 62.8924C109.031 62.3761 107.463 63.1075 106.946 64.5261Z" stroke="#48C5B5" stroke-width="2"/>
<path d="M120.406 62.0468L112.453 72.5815L120.494 78.5802" stroke="#48C5B5" stroke-width="2"/>
</g>
<path d="M106.383 105.256C122.471 111.112 140.26 102.816 146.116 86.7281L147.995 87.4122C141.762 104.538 122.825 113.369 105.699 107.135L106.383 105.256ZM87.8547 65.5229C81.9991 81.6112 90.2943 99.4003 106.383 105.256L105.699 107.135C88.5723 100.902 79.7419 81.9651 85.9753 64.8389L87.8547 65.5229ZM127.588 46.995C111.5 41.1394 93.7104 49.4346 87.8547 65.5229L85.9753 64.8389C92.2088 47.7126 111.146 38.8822 128.272 45.1157L127.588 46.995ZM128.272 45.1157C145.398 51.3491 154.229 70.2859 147.995 87.4122L146.116 86.7281C151.971 70.6398 143.676 52.8507 127.588 46.995L128.272 45.1157Z" fill="#48C5B5"/>
<defs>
<clipPath id="clip0">
<rect width="33.6" height="33.6" fill="white" transform="matrix(0.997564 0.0697565 0.0697565 -0.997564 47.9541 45.6086)"/>
</clipPath>
<clipPath id="clip1">
<path d="M147.055 87.0702C153.1 70.4629 144.537 52.0999 127.93 46.0554V46.0554C111.323 40.0108 92.9596 48.5736 86.915 65.1809V65.1809C80.8705 81.7882 89.4333 100.151 106.041 106.196V106.196C122.648 112.24 141.011 103.677 147.055 87.0702V87.0702Z" fill="white"/>
</clipPath>
</defs>
</svg>
