<svg width="51" height="51" viewBox="0 0 51 51" fill="none" xmlns="http://www.w3.org/2000/svg">
<g clip-path="url(#clip0)">
<path d="M11.6722 13.9886C17.9284 6.26292 29.2629 5.07161 36.9886 11.3278C44.7143 17.5839 45.9056 28.9185 39.6495 36.6442C33.3933 44.3699 22.0588 45.5612 14.3331 39.305C6.60739 33.0489 5.41608 21.7143 11.6722 13.9886Z" fill="#D886FF"/>
<g clip-path="url(#clip1)">
<path d="M33.0398 17.395L33.8203 31.9241M19.4464 34.1814L33.8203 31.9241M33.8203 31.9241L17.5002 18.7084" stroke="white" stroke-width="2"/>
</g>
</g>
<defs>
<clipPath id="clip0">
<path d="M11.6722 13.9886C17.9284 6.26292 29.2629 5.07161 36.9886 11.3278C44.7143 17.5839 45.9056 28.9185 39.6495 36.6442C33.3933 44.3699 22.0588 45.5612 14.3331 39.305C6.60739 33.0489 5.41608 21.7143 11.6722 13.9886Z" fill="white"/>
</clipPath>
<clipPath id="clip1">
<rect width="21.6" height="21.6" fill="white" transform="translate(24.0645 10.1265) rotate(39)"/>
</clipPath>
</defs>
</svg>
