<svg width="72" height="71" viewBox="0 0 72 71" fill="none" xmlns="http://www.w3.org/2000/svg">
<path d="M9.34752 26.6296C14.1262 11.9225 29.9225 3.87385 44.6296 8.65248C59.3367 13.4311 67.3853 29.2274 62.6067 43.9345C57.8281 58.6416 42.0317 66.6903 27.3246 61.9116C12.6175 57.133 4.56889 41.3367 9.34752 26.6296Z" fill="#D886FF"/>
<g clip-path="url(#clip0)">
<ellipse cx="38.2127" cy="28.4027" rx="10.7333" ry="3.96667" transform="rotate(18 38.2127 28.4027)" stroke="white" stroke-width="2"/>
<path d="M43.5898 46.5877C43.4194 47.1122 42.9866 47.5459 42.3161 47.8638C41.6457 48.1817 40.7507 48.3778 39.6823 48.4407C38.6138 48.5036 37.3929 48.4322 36.0892 48.2305C34.7855 48.0289 33.4245 47.7009 32.084 47.2653C30.7434 46.8298 29.4496 46.2951 28.2763 45.692C27.1031 45.0888 26.0733 44.429 25.246 43.7501C24.4186 43.0711 23.8097 42.3865 23.4542 41.7352C23.0987 41.0839 23.0034 40.4787 23.1738 39.9541" stroke="white" stroke-width="2"/>
<path d="M45.1758 41.7056C45.0053 42.2301 44.5725 42.6638 43.9021 42.9817C43.2316 43.2997 42.3366 43.4957 41.2682 43.5586C40.1998 43.6215 38.9788 43.5501 37.6751 43.3485C36.3714 43.1468 35.0104 42.8188 33.6699 42.3832C32.3294 41.9477 31.0355 41.4131 29.8623 40.8099C28.689 40.2068 27.6593 39.5469 26.8319 38.868C26.0045 38.1891 25.3957 37.5044 25.0401 36.8531C24.6846 36.2018 24.5893 35.5966 24.7598 35.072" stroke="white" stroke-width="2"/>
<path d="M46.7617 36.8235C46.5913 37.3481 46.1585 37.7817 45.488 38.0996C44.8175 38.4176 43.9225 38.6136 42.8541 38.6765C41.7857 38.7395 40.5648 38.6681 39.2611 38.4664C37.9574 38.2647 36.5964 37.9367 35.2558 37.5012C33.9153 37.0656 32.6215 36.531 31.4482 35.9278C30.2749 35.3247 29.2452 34.6648 28.4178 33.9859C27.5904 33.307 26.9816 32.6223 26.6261 31.971C26.2705 31.3197 26.1753 30.7145 26.3457 30.1899" stroke="white" stroke-width="2"/>
<path d="M23.1728 39.954L27.9316 25.3077" stroke="white" stroke-width="2"/>
<path d="M43.5888 46.5877L48.3477 31.9414" stroke="white" stroke-width="2"/>
</g>
<defs>
<clipPath id="clip0">
<rect width="33.6" height="33.6" fill="white" transform="translate(25.1914 14.1128) rotate(18)"/>
</clipPath>
</defs>
</svg>
