<svg width="214" height="40" viewBox="0 0 214 40" fill="none" xmlns="http://www.w3.org/2000/svg">
<path fill-rule="evenodd" clip-rule="evenodd" d="M192.72 0.35396C191.167 0.770989 189.516 2.17052 188.909 3.58321C188.692 4.08948 188.514 5.19556 188.514 6.04163C188.514 7.77868 188.666 7.97461 191.017 9.27118C192.985 10.3567 193.467 10.0969 193.672 7.84018C193.813 6.27675 194.181 5.68095 195.012 5.67037C195.345 5.66608 206.897 12.0168 207.639 12.612C207.843 12.7762 207.972 13.241 207.925 13.6443C207.85 14.2778 206.982 14.8539 201.54 17.8809C198.076 19.8079 195.09 21.3876 194.904 21.3911C194.192 21.4048 193.667 20.4841 193.667 19.2227C193.667 15.784 191.092 13.2847 187.58 13.3148C186.002 13.3285 185.603 13.5104 178.276 17.5597C169.816 22.2346 168.71 23.0898 168.23 25.324C167.759 27.5206 168.673 30.1547 170.268 31.1938C171.188 31.7933 182.998 38.3663 184.738 39.2472C188.81 41.3087 193.294 38.9372 193.612 34.5558C193.757 32.5433 193.623 32.3245 191.488 31.1043C189.427 29.9262 188.681 30.0406 188.581 31.5517C188.459 33.3736 188.261 33.9451 187.633 34.2809C187.128 34.5504 186.152 34.1002 180.783 31.122C177.339 29.2116 174.373 27.4712 174.193 27.2541C173.474 26.3877 174.287 25.7461 180.504 22.2777C188.101 18.0397 188.488 18.0042 188.515 21.5407C188.526 23.0658 189.522 24.749 191.046 25.8191C192.147 26.5922 192.513 26.6892 194.336 26.6892H196.387L203.822 22.5418C207.911 20.2607 211.621 18.0886 212.065 17.7147C214.937 15.3021 214.553 10.7399 211.306 8.68768C207.64 6.36971 196.742 0.502981 195.625 0.245555C194.153 -0.0933882 194.422 -0.1034 192.72 0.35396ZM31.8198 1.50408C29.5673 2.30667 28.761 3.70277 28.761 6.80103V8.81239H27.1864H25.6118V11.2436V13.6749H27.1864H28.761V21.9697V30.2645H31.4808H34.2007V21.9697V13.6749H37.7559H41.3111L41.4067 20.182C41.5092 27.1577 41.604 27.6454 43.1202 29.0091C44.1377 29.9244 45.4941 30.2645 48.1286 30.2645H50.5195V28.0089V25.753L49.2346 25.5605C47.0905 25.2393 47.0839 25.2193 47.0839 19.0891V13.6749H48.8017H50.5195V11.2436V8.81239H48.8017H47.0839V6.23813V3.66388H44.221H41.358V6.23813V8.81239H37.7793H34.2007V7.70002C34.2007 6.09083 34.8889 5.40122 36.7057 5.18956L38.2088 5.01422V3.05206V1.08962L35.5606 1.10221C34.0864 1.10907 32.4279 1.28727 31.8198 1.50408ZM7.84116 8.91736C4.89232 9.71195 2.13272 12.1017 0.753917 15.055C0.0917163 16.4731 -0.00361987 17.0394 0.000101967 19.5385C0.00353751 21.8453 0.131225 22.7168 0.660585 24.0425C1.52663 26.2106 3.7228 28.5878 5.80302 29.6084C7.27229 30.3292 7.72664 30.4075 10.4381 30.4075C13.677 30.4075 14.6905 30.0815 16.6983 28.3936L17.5955 27.6394V28.9519V30.2645H20.3188H23.042L22.967 19.61L22.892 8.9554L20.2438 8.87303L17.5955 8.79093V10.0935V11.3961L16.136 10.393C13.5968 8.64821 10.7325 8.13851 7.84116 8.91736ZM60.892 8.9514C56.6954 10.1313 53.9496 12.8468 52.9292 16.826C51.5982 22.0169 53.8751 27.206 58.4768 29.4691C60.3248 30.3781 60.4969 30.4075 63.9693 30.4075C67.2967 30.4075 67.6774 30.35 69.2718 29.6061C71.2155 28.6991 72.8259 27.2821 74.0321 25.4175C75.4174 23.2757 75.288 23.1138 72.1883 23.1138C69.5722 23.1138 69.5063 23.1307 68.6812 24.0079C65.7916 27.0805 60.2152 26.3608 58.8412 22.7377C58.1931 21.0287 57.7756 21.1116 67.0224 21.1116H75.5091L75.3502 18.7945C75.2265 16.9928 74.9929 16.0752 74.3003 14.6697C73.1646 12.3646 70.8694 10.2228 68.6268 9.37472C66.4945 8.5687 62.9447 8.37419 60.892 8.9514ZM86.5025 8.80067C86.0593 8.94254 85.2626 9.3896 84.7321 9.79375L83.7678 10.5286L83.6771 9.74198L83.5866 8.9554H80.8668H78.147L78.072 19.61L77.997 30.2645H80.8633H83.7297V23.4902C83.7297 17.2502 83.7758 16.6204 84.3152 15.5072C84.7584 14.5927 85.1833 14.1857 86.0619 13.8345C87.1175 13.4126 87.3783 13.4103 88.9349 13.8087C89.8765 14.0499 90.701 14.2469 90.7672 14.2469C91.0351 14.2469 90.8671 9.11987 90.5934 8.95083C90.0792 8.63334 87.3385 8.53266 86.5025 8.80067ZM103.914 8.70056C102.606 9.0292 101.548 9.53146 100.263 10.4322L98.9034 11.3858V10.0989V8.81239H96.1836H93.4638V23.9822V39.152L96.2328 39.0702L99.0016 38.9884L99.0242 33.6254C99.0365 30.6758 99.111 28.2646 99.1897 28.2675C99.2684 28.2703 99.9003 28.657 100.594 29.1264C102.303 30.2837 103.749 30.6226 106.478 30.5059C111.466 30.2928 115.178 27.0376 116.258 21.9294C117.669 15.2523 113.096 8.99545 106.559 8.66223C105.419 8.60416 104.228 8.62133 103.914 8.70056ZM126.674 8.91936C123.498 9.79289 121.062 11.7871 119.644 14.676C118.859 16.2732 118.801 16.6201 118.801 19.6815C118.801 22.736 118.86 23.0924 119.636 24.6727C121.375 28.216 124.552 30.3094 128.485 30.5028C131.19 30.6361 132.847 30.217 134.727 28.925L136.122 27.9669V29.1155V30.2645H138.842H141.561V19.5276V8.79093L138.913 8.87303L136.265 8.9554L136.178 10.157L136.09 11.3589L134.806 10.3793C132.574 8.67767 129.536 8.13221 126.674 8.91936ZM144.061 8.98486C143.966 9.07983 145.934 13.2553 148.434 18.2636L152.981 27.3696L150.281 33.1792L147.582 38.9884L150.344 39.0708C151.863 39.1162 153.206 39.0519 153.328 38.9278C153.559 38.6935 166.639 10.1953 166.921 9.31294C167.065 8.86044 166.824 8.81268 164.413 8.81668C162.946 8.81926 161.598 8.91565 161.418 9.03121C161.238 9.14676 159.9 11.9164 158.445 15.186C156.99 18.4553 155.764 21.0939 155.72 21.0495C155.677 21.0049 154.525 18.3958 153.16 15.2515C151.796 12.1069 150.545 9.37186 150.38 9.17336C150.071 8.80123 144.413 8.63248 144.061 8.98486ZM14.6816 14.5003C16.6705 15.9242 17.3565 17.2565 17.3625 19.7084C17.3716 23.4367 14.6077 25.9383 10.8255 25.6249C5.11935 25.1523 3.49749 16.9908 8.57722 14.3116C10.4324 13.3331 13.1697 13.4177 14.6816 14.5003ZM66.7519 13.9884C67.9174 14.5521 69.415 16.4408 69.415 17.3469C69.415 17.5877 67.9168 17.6793 63.9754 17.6793C60.0339 17.6793 58.5357 17.5877 58.5357 17.3469C58.5357 17.1641 58.8544 16.4714 59.2438 15.8075C60.5913 13.5098 64.0369 12.6752 66.7519 13.9884ZM108.276 14.5925C110.575 16.1124 111.552 19.5951 110.385 22.1127C108.525 26.1263 103.324 26.9003 100.42 23.5955C97.7147 20.5175 98.869 15.5698 102.667 13.9661C103.037 13.8093 104.193 13.7152 105.234 13.7567C106.722 13.8159 107.372 13.9947 108.276 14.5925ZM132.912 14.2192C135.599 15.5958 136.807 18.7439 135.788 21.7126C134.298 26.0519 128.683 27.0885 125.61 23.5915C123.157 20.8001 123.984 16.0483 127.22 14.3407C128.839 13.4864 131.377 13.4323 132.912 14.2192Z" fill="black"/>
</svg>
