<svg width="113" height="49" viewBox="0 0 113 49" fill="none" xmlns="http://www.w3.org/2000/svg">
<path d="M0 0H48.5298V49H0V0Z" fill="black"/>
<path fill-rule="evenodd" clip-rule="evenodd" d="M36.7037 18.5863H27.6118V15.207H40.1626V16.8967C40.1626 19.0046 39.7514 21.0919 38.9525 23.0394C38.1535 24.9869 36.9825 26.7564 35.5063 28.247C34.03 29.7375 32.2775 30.9199 30.3487 31.7265C28.4199 32.5332 26.3526 32.9484 24.2649 32.9484C22.1772 32.9484 20.1099 32.5332 18.1811 31.7265C16.2523 30.9199 14.4998 29.7375 13.0235 28.247C11.5607 26.77 10.4979 25.2832 9.57735 23.0394C8.66381 20.8126 8.3672 19.307 8.36719 16.8967L11.7141 16.8967C11.7141 18.8632 11.9241 19.9294 12.6695 21.7462C13.4078 23.546 14.2113 24.6671 15.3901 25.8574C16.5556 27.0342 17.9392 27.9676 19.4619 28.6045C20.9847 29.2413 22.6167 29.5691 24.2649 29.5691C25.9131 29.5691 27.5452 29.2413 29.0679 28.6045C30.5906 27.9676 31.9742 27.0342 33.1397 25.8574C34.3051 24.6807 35.2296 23.2837 35.8604 21.7462C36.2764 20.732 36.5593 19.6697 36.7037 18.5863Z" fill="white"/>
<path d="M61.248 2.17969C62.6537 2.17969 63.7805 2.53452 64.6284 3.24417C65.4874 3.95383 65.9783 4.9113 66.101 6.11658H63.959C63.8363 5.42946 63.5406 4.90567 63.0721 4.54521C62.6147 4.17348 62.0067 3.98762 61.248 3.98762C60.1882 3.98762 59.3459 4.39314 58.7211 5.20417C58.1075 6.00394 57.8007 7.10222 57.8007 8.499C57.8007 9.90704 58.102 11.0166 58.7044 11.8276C59.3068 12.6387 60.1268 13.0442 61.1644 13.0442C62.1015 13.0442 62.8378 12.7626 63.3733 12.1993C63.9088 11.6361 64.1821 10.7857 64.1933 9.64796H61.1476V7.95831H66.0675V14.4635H64.3439V12.9766H64.3104C63.9869 13.506 63.5072 13.9228 62.8713 14.2269C62.2465 14.5311 61.5269 14.6831 60.7125 14.6831C59.1841 14.6831 57.9681 14.1312 57.0644 13.0273C56.1719 11.9234 55.7257 10.4139 55.7257 8.499C55.7257 6.539 56.2165 4.99578 57.1983 3.86934C58.1912 2.74291 59.5411 2.17969 61.248 2.17969Z" fill="black"/>
<path d="M68.2816 14.4635V2.43314H72.3815C75.2152 2.43314 76.6321 3.54268 76.6321 5.76176C76.6321 6.51647 76.4312 7.15854 76.0296 7.68796C75.6392 8.21739 75.1037 8.56658 74.4231 8.73555V8.76934C74.8471 8.91578 75.1817 9.1467 75.4272 9.4621C75.6726 9.7775 75.9292 10.3126 76.197 11.0673L77.4186 14.4635H75.2264L74.2223 11.439C73.988 10.7519 73.7091 10.2788 73.3856 10.0197C73.0732 9.76061 72.6158 9.63107 72.0134 9.63107H70.2897V14.4635H68.2816ZM72.164 4.10589H70.2897V7.97521H72.2811C73.0844 7.97521 73.6756 7.80061 74.055 7.45141C74.4343 7.09095 74.6184 6.59532 74.6072 5.96452C74.6072 4.72544 73.7928 4.10589 72.164 4.10589Z" fill="black"/>
<path d="M86.5944 2.43314V4.19038H80.637V7.45141H86.2263V9.19176H80.637V12.7062H86.7618V14.4635H78.6288V2.43314H86.5944Z" fill="black"/>
<path d="M96.3506 14.4635L95.2461 11.2024H90.3095L89.205 14.4635H87.0964L91.4307 2.43314H94.1249L98.4591 14.4635H96.3506ZM90.9119 9.44521H94.6437L94.3257 8.499C93.6563 6.49394 93.1432 4.90003 92.7861 3.71727H92.7527C92.1614 5.67727 91.6538 7.27118 91.2298 8.499L90.9119 9.44521Z" fill="black"/>
<path d="M106.485 2.43314V4.19038H102.569V14.4635H100.577V4.19038H96.6616V2.43314H106.485Z" fill="black"/>
<path d="M70.5524 18.4849L67.9251 30.5152H65.2308L64.0427 25.5138C63.5964 23.6214 63.2171 21.8585 62.9047 20.2252H62.8713C62.5589 21.8585 62.1796 23.6214 61.7333 25.5138L60.5452 30.5152H57.8509L55.2236 18.4849H57.1983L58.1689 23.1145C58.604 25.1421 58.9554 26.95 59.2232 28.5383H59.2566C59.6694 26.5558 60.071 24.7422 60.4615 23.0976L61.566 18.4849H64.21L65.3145 23.0976C65.705 24.7422 66.1066 26.5558 66.5194 28.5383H66.5528C66.7871 27.1528 67.133 25.3449 67.5904 23.1145L68.5777 18.4849H70.5524Z" fill="black"/>
<path d="M80.9241 18.4849V30.5152H78.9327V25.1421H73.4438V30.5152H71.4356V18.4849H73.4438V23.3849H78.9327V18.4849H80.9241Z" fill="black"/>
<path d="M85.3108 18.4849V30.5152H83.3027V18.4849H85.3108Z" fill="black"/>
<path d="M95.925 18.4849V20.2421H92.0092V30.5152H90.0178V20.2421H86.1019V18.4849H95.925Z" fill="black"/>
<path d="M104.69 18.4849V20.2421H98.733V23.5031H104.322V25.2435H98.733V28.758H104.858V30.5152H96.7249V18.4849H104.69Z" fill="black"/>
<path d="M59.9929 34.2831C61.4321 34.2831 62.5198 34.6211 63.2562 35.2969C64.0036 35.9615 64.3774 36.9415 64.3774 38.2369H62.3525C62.3525 37.4822 62.1461 36.9134 61.7333 36.5304C61.3205 36.1361 60.7293 35.939 59.9595 35.939C59.3124 35.939 58.7992 36.0854 58.4199 36.3783C58.0518 36.6599 57.8677 37.0485 57.8677 37.5442C57.8677 38.0623 58.0629 38.4453 58.4534 38.6931C58.8438 38.941 59.5578 39.1944 60.5954 39.4535C61.1309 39.5887 61.566 39.7069 61.9007 39.8083C62.2354 39.9097 62.5979 40.0618 62.9884 40.2645C63.39 40.456 63.7024 40.67 63.9255 40.9066C64.1487 41.1431 64.3327 41.4529 64.4778 41.8359C64.634 42.2076 64.7121 42.6413 64.7121 43.1369C64.7121 44.2521 64.3048 45.1476 63.4904 45.8235C62.676 46.4881 61.5995 46.8204 60.2607 46.8204C58.7992 46.8204 57.6613 46.4599 56.8469 45.739C56.0325 45.0068 55.6253 43.9592 55.6253 42.5962H57.6836C57.6836 44.2972 58.5482 45.1476 60.2774 45.1476C61.0137 45.1476 61.5883 44.9843 62.0011 44.6576C62.425 44.331 62.637 43.886 62.637 43.3228C62.637 42.7596 62.4473 42.3597 62.068 42.1231C61.6887 41.8866 60.9803 41.6388 59.9427 41.3797C59.3849 41.2333 58.9443 41.115 58.6207 41.0249C58.3083 40.9235 57.9458 40.777 57.533 40.5855C57.1202 40.3828 56.8078 40.1688 56.5959 39.9435C56.3839 39.7069 56.1998 39.4028 56.0436 39.0311C55.8874 38.6481 55.8093 38.2144 55.8093 37.73C55.8093 36.705 56.1887 35.877 56.9473 35.2462C57.7171 34.6042 58.7323 34.2831 59.9929 34.2831Z" fill="black"/>
<path d="M79.4236 34.5366V46.5669H77.4824V40.518C77.4824 38.8283 77.5047 37.3076 77.5493 35.9559H77.5159C77.1254 37.2738 76.6457 38.7833 76.0767 40.4842L74.0184 46.5669H71.7257L69.6674 40.4842C69.0984 38.7833 68.6187 37.2738 68.2282 35.9559H68.1948C68.2394 37.3076 68.2617 38.8283 68.2617 40.518V46.5669H66.3205V34.5366H69.5503L71.4747 40.2645C71.9991 41.8077 72.4565 43.3172 72.8469 44.7928H72.8804C73.3155 43.227 73.7785 41.7176 74.2694 40.2645L76.1938 34.5366H79.4236Z" fill="black"/>
<path d="M83.791 34.5366V46.5669H81.7829V34.5366H83.791Z" fill="black"/>
<path d="M88.157 34.5366V44.8097H94.014V46.5669H86.1489V34.5366H88.157Z" fill="black"/>
<path d="M103.04 34.5366V36.2938H97.0825V39.5549H102.672V41.2952H97.0825V44.8097H103.207V46.5669H95.0743V34.5366H103.04Z" fill="black"/>
<path d="M108.281 34.2831C109.72 34.2831 110.808 34.6211 111.544 35.2969C112.292 35.9615 112.665 36.9415 112.665 38.2369H110.64C110.64 37.4822 110.434 36.9134 110.021 36.5304C109.609 36.1361 109.017 35.939 108.247 35.939C107.6 35.939 107.087 36.0854 106.708 36.3783C106.34 36.6599 106.156 37.0485 106.156 37.5442C106.156 38.0623 106.351 38.4453 106.741 38.6931C107.132 38.941 107.846 39.1944 108.883 39.4535C109.419 39.5887 109.854 39.7069 110.189 39.8083C110.523 39.9097 110.886 40.0618 111.276 40.2645C111.678 40.456 111.99 40.67 112.214 40.9066C112.437 41.1431 112.621 41.4529 112.766 41.8359C112.922 42.2076 113 42.6413 113 43.1369C113 44.2521 112.593 45.1476 111.778 45.8235C110.964 46.4881 109.887 46.8204 108.549 46.8204C107.087 46.8204 105.949 46.4599 105.135 45.739C104.32 45.0068 103.913 43.9592 103.913 42.5962H105.972C105.972 44.2972 106.836 45.1476 108.565 45.1476C109.302 45.1476 109.876 44.9843 110.289 44.6576C110.713 44.331 110.925 43.886 110.925 43.3228C110.925 42.7596 110.735 42.3597 110.356 42.1231C109.977 41.8866 109.268 41.6388 108.231 41.3797C107.673 41.2333 107.232 41.115 106.909 41.0249C106.596 40.9235 106.234 40.777 105.821 40.5855C105.408 40.3828 105.096 40.1688 104.884 39.9435C104.672 39.7069 104.488 39.4028 104.332 39.0311C104.175 38.6481 104.097 38.2144 104.097 37.73C104.097 36.705 104.477 35.877 105.235 35.2462C106.005 34.6042 107.02 34.2831 108.281 34.2831Z" fill="black"/>
</svg>
