<svg width="256" height="256" viewBox="0 0 256 256" fill="none" xmlns="http://www.w3.org/2000/svg">
<path d="M0 0H256V256H0V0Z" fill="black"/>
<path fill-rule="evenodd" clip-rule="evenodd" d="M193.724 96.7143H145.684V79H212V87.8571C212 98.9069 209.827 109.849 205.606 120.057C201.384 130.266 195.197 139.542 187.397 147.355C179.597 155.169 170.337 161.366 160.145 165.595C149.954 169.824 139.031 172 128 172C116.969 172 106.046 169.824 95.8547 165.595C85.6633 161.366 76.4032 155.169 68.6031 147.355C60.8739 139.613 55.258 131.819 50.3942 120.057C45.5673 108.384 44.0001 100.492 44 87.8572L61.6842 87.8571C61.6842 98.1656 62.794 103.754 66.7323 113.278C70.6336 122.713 74.8788 128.59 81.1077 134.829C87.2657 140.998 94.5763 145.891 102.622 149.229C110.668 152.567 119.291 154.286 128 154.286C136.709 154.286 145.332 152.567 153.378 149.229C161.424 145.891 168.734 140.998 174.892 134.829C181.05 128.661 185.935 121.338 189.268 113.278C191.466 107.962 192.961 102.393 193.724 96.7143Z" fill="white"/>
</svg>
