<svg width="58" height="58" viewBox="0 0 58 58" fill="none" xmlns="http://www.w3.org/2000/svg">
<mask id="path-3-inside-1" fill="white">
<path d="M39.2667 31.5666C39.2667 32.9455 38.9951 34.3109 38.4674 35.5848C37.9397 36.8587 37.1663 38.0163 36.1913 38.9913C35.2163 39.9663 34.0588 40.7397 32.7848 41.2674C31.5109 41.7951 30.1455 42.0666 28.7667 42.0666C27.3878 42.0666 26.0224 41.7951 24.7485 41.2674C23.4746 40.7397 22.3171 39.9663 21.342 38.9913C20.367 38.0163 19.5936 36.8587 19.0659 35.5848C18.5383 34.3109 18.2667 32.9455 18.2667 31.5666L28.7667 31.5666H39.2667Z"/>
</mask>
<path d="M39.2667 31.5666C39.2667 32.9455 38.9951 34.3109 38.4674 35.5848C37.9397 36.8587 37.1663 38.0163 36.1913 38.9913C35.2163 39.9663 34.0588 40.7397 32.7848 41.2674C31.5109 41.7951 30.1455 42.0666 28.7667 42.0666C27.3878 42.0666 26.0224 41.7951 24.7485 41.2674C23.4746 40.7397 22.3171 39.9663 21.342 38.9913C20.367 38.0163 19.5936 36.8587 19.0659 35.5848C18.5383 34.3109 18.2667 32.9455 18.2667 31.5666L28.7667 31.5666H39.2667Z" stroke="#FC7B33" stroke-width="4" mask="url(#path-3-inside-1)"/>
<circle cx="19.6667" cy="20.5999" r="2.26667" stroke="#FC7B33" stroke-width="2"/>
<circle cx="37.8667" cy="20.5999" r="2.26667" stroke="#FC7B33" stroke-width="2"/>
<line x1="25.7395" y1="28.1586" x2="29.5855" y2="18.6395" stroke="#FC7B33" stroke-width="2"/>
<path d="M29 56C14.0883 56 2 43.9117 2 29H0C0 45.0163 12.9837 58 29 58V56ZM56 29C56 43.9117 43.9117 56 29 56V58C45.0163 58 58 45.0163 58 29H56ZM29 2C43.9117 2 56 14.0883 56 29H58C58 12.9837 45.0163 0 29 0V2ZM29 0C12.9837 0 0 12.9837 0 29H2C2 14.0883 14.0883 2 29 2V0Z" fill="#FC7B33"/>
</svg>
