<svg width="75" height="76" viewBox="0 0 75 76" fill="none" xmlns="http://www.w3.org/2000/svg">
<mask id="path-3-inside-1" fill="white">
<path d="M49.1352 38.8085C49.4088 40.3604 49.3741 41.951 49.033 43.4895C48.692 45.028 48.0512 46.4843 47.1473 47.7752C46.2434 49.066 45.0942 50.1662 43.7651 51.0129C42.436 51.8596 40.9532 52.4363 39.4013 52.7099C37.8493 52.9836 36.2587 52.9489 34.7202 52.6078C33.1817 52.2667 31.7254 51.6259 30.4346 50.7221C29.1437 49.8182 28.0435 48.6689 27.1968 47.3398C26.3501 46.0108 25.7734 44.5279 25.4998 42.976L37.3175 40.8922L49.1352 38.8085Z"/>
</mask>
<path d="M49.1352 38.8085C49.4088 40.3604 49.3741 41.951 49.033 43.4895C48.692 45.028 48.0512 46.4843 47.1473 47.7752C46.2434 49.066 45.0942 50.1662 43.7651 51.0129C42.436 51.8596 40.9532 52.4363 39.4013 52.7099C37.8493 52.9836 36.2587 52.9489 34.7202 52.6078C33.1817 52.2667 31.7254 51.6259 30.4346 50.7221C29.1437 49.8182 28.0435 48.6689 27.1968 47.3398C26.3501 46.0108 25.7734 44.5279 25.4998 42.976L37.3175 40.8922L49.1352 38.8085Z" stroke="#48C5B5" stroke-width="4" mask="url(#path-3-inside-1)"/>
<path d="M27.5909 29.8806C27.8531 31.3672 26.8604 32.7849 25.3738 33.047C23.8871 33.3092 22.4694 32.3165 22.2073 30.8299C21.9452 29.3432 22.9378 27.9256 24.4245 27.6634C25.9111 27.4013 27.3288 28.394 27.5909 29.8806Z" stroke="#48C5B5" stroke-width="2"/>
<path d="M48.0753 26.2687C48.3374 27.7554 47.3448 29.173 45.8581 29.4352C44.3715 29.6973 42.9538 28.7046 42.6917 27.218C42.4296 25.7314 43.4222 24.3137 44.9089 24.0515C46.3955 23.7894 47.8132 24.7821 48.0753 26.2687Z" stroke="#48C5B5" stroke-width="2"/>
<line x1="33.3734" y1="37.687" x2="35.8129" y2="26.2101" stroke="#48C5B5" stroke-width="2"/>
<path d="M42.4537 68.4861C25.593 71.4591 9.51455 60.2009 6.54155 43.3402L4.57193 43.6875C7.73674 61.636 24.8525 73.6206 42.801 70.4558L42.4537 68.4861ZM67.5996 32.574C70.5726 49.4347 59.3144 65.5131 42.4537 68.4861L42.801 70.4558C60.7495 67.291 72.7341 50.1752 69.5692 32.2267L67.5996 32.574ZM31.6875 7.42807C48.5482 4.45507 64.6266 15.7133 67.5996 32.574L69.5692 32.2267C66.4044 14.2782 49.2887 2.29364 31.3402 5.45845L31.6875 7.42807ZM31.3402 5.45845C13.3917 8.62326 1.40713 25.739 4.57193 43.6875L6.54155 43.3402C3.56855 26.4795 14.8268 10.4011 31.6875 7.42807L31.3402 5.45845Z" fill="#48C5B5"/>
</svg>
