<svg width="216" height="52" viewBox="0 0 216 52" fill="none" xmlns="http://www.w3.org/2000/svg">
<g clip-path="url(#clip0)">
<path fill-rule="evenodd" clip-rule="evenodd" d="M84.7766 0.278103C79.6181 1.38617 76.1746 5.59512 75.5046 11.6107C75.1439 14.8499 75.9158 18.6847 77.4411 21.2303C78.958 23.7616 81.8902 25.8326 84.8474 26.4611C86.633 26.8404 89.3496 26.7118 90.8758 26.1757C94.715 24.8266 97.5829 21.1516 98.1915 16.8009L98.3106 15.949H97.4233H96.5359L96.3086 17.2228C96.039 18.7337 95.0041 20.8852 93.973 22.079C91.3217 25.1489 86.9927 25.9556 83.1331 24.0997C80.6621 22.9114 78.8924 20.7748 77.9206 17.8062C77.4346 16.3215 77.4008 16.031 77.4008 13.3483C77.4008 10.6601 77.4339 10.3773 77.9251 8.8768C79.3636 4.48221 82.5462 1.92119 86.8949 1.65933C91.2532 1.39693 94.8974 3.77519 95.8425 7.49899L96.0526 8.32636L96.9974 8.38106C97.8355 8.42967 97.9319 8.39936 97.8513 8.11203C97.8015 7.93393 97.6358 7.34438 97.4834 6.80183C96.8403 4.5136 94.8515 2.14413 92.6761 1.07445C90.546 0.0271839 87.4144 -0.288484 84.7766 0.278103ZM1 13.3639V26.2035L6.50838 26.1248C12.5991 26.0378 12.9268 25.9888 15.3119 24.8092C19.4756 22.7502 21.821 17.2188 21.0847 11.1955C20.4963 6.38106 18.7046 3.45863 15.3307 1.80981C13.0955 0.717347 11.6671 0.524359 5.81316 0.524359H1V13.3639ZM62.3834 2.07884C62.3177 2.14448 62.2639 3.43585 62.2639 4.94854V7.69861H60.6517H59.0395V8.41604V9.13346H60.6372H62.2347L62.31 16.0835C62.3931 23.7716 62.4295 24.0486 63.4967 25.1173C64.2715 25.8931 65.1362 26.17 66.7871 26.1712L67.9962 26.1723V25.4768V24.781L66.6518 24.5809C64.0184 24.1886 64.1554 24.639 64.0922 16.1732L64.0397 9.13346H66.0179H67.9962V8.41604V7.69861H66.0258H64.0553V4.82891V1.95921H63.2791C62.852 1.95921 62.449 2.01302 62.3834 2.07884ZM70.5041 3.2147V4.4702H71.3102H72.1163V3.2147V1.95921H71.3102H70.5041V3.2147ZM10.4148 2.3172C12.7019 2.51988 14.0317 2.92755 15.423 3.85214C16.6234 4.64991 17.3236 5.46778 18.0319 6.89958C18.8631 8.57997 19.1083 9.73018 19.2178 12.4605C19.2962 14.4207 19.2518 15.3171 19.018 16.496C18.2261 20.4876 15.8416 23.1871 12.2652 24.1406C11.3534 24.3836 10.2842 24.448 7.001 24.4569L2.88091 24.4684L2.83451 13.5277C2.8089 7.51029 2.82645 2.48616 2.87357 2.36276C2.98033 2.0835 7.47176 2.05642 10.4148 2.3172ZM30.0198 7.35747C27.0771 7.93285 24.7821 10.3859 23.8273 13.9761C23.3991 15.586 23.3975 18.8895 23.824 20.3432C25.0296 24.4523 27.6382 26.531 31.5886 26.531C35.7374 26.531 38.2992 24.7125 39.4042 20.9832C39.5631 20.4474 39.693 19.9431 39.693 19.8622C39.693 19.7815 39.29 19.7155 38.7973 19.7155C37.988 19.7155 37.9017 19.7544 37.9015 20.119C37.9013 20.9197 36.9008 22.6646 35.9527 23.5182C34.7177 24.63 33.6019 25.0065 31.5424 25.0065C30.1378 25.0065 29.7982 24.9416 28.9048 24.5023C27.257 23.6922 26.0514 22.0324 25.4651 19.7664C25.31 19.1674 25.1831 18.3459 25.1831 17.9409V17.2045H32.5545H39.9257L39.8137 15.6351C39.6176 12.8851 38.8323 10.9381 37.3014 9.40644C35.495 7.59925 32.7433 6.82497 30.0198 7.35747ZM49.2187 7.34133C47.4463 7.71601 45.4746 9.0011 44.6808 10.2993L44.3518 10.8373L44.3512 9.26798L44.3505 7.69861H43.4548H42.5592V16.9355V26.1723H43.4548H44.3505L44.3527 20.3881C44.3548 14.2813 44.4252 13.6093 45.2266 12.0399C45.8011 10.9148 46.7989 9.88783 47.8323 9.35802C48.9279 8.79609 51.2255 8.59647 52.4961 8.95267C53.5317 9.24305 54.5887 10.1624 55.1213 11.2361C55.5437 12.0876 55.5468 12.1364 55.6009 19.1421L55.6551 26.1911L56.4965 26.137L57.3377 26.0826L57.3343 19.2671C57.3313 13.3639 57.2901 12.3181 57.0259 11.4547C56.4571 9.5962 55.1803 8.20727 53.4921 7.61091C52.5387 7.27425 50.2268 7.12826 49.2187 7.34133ZM106.519 7.3503C105.117 7.53845 103.309 8.39362 102.641 9.18404C101.958 9.9924 101.357 11.3865 101.213 12.4964L101.09 13.438H101.899H102.708L102.825 12.6557C103.126 10.6431 104.755 9.15229 107.053 8.78712C110.997 8.1601 113.833 10.5452 112.968 13.7614C112.621 15.052 111.738 15.369 107.39 15.7626C103.409 16.1232 101.663 16.927 100.712 18.8375C99.7827 20.7053 100.186 23.817 101.516 25.0409C102.413 25.8663 103.954 26.3992 105.711 26.4912C108.524 26.6385 110.648 25.8493 112.234 24.0674L113.091 23.1048L113.177 24.0007C113.224 24.4934 113.396 25.0996 113.558 25.348C113.927 25.9119 115.081 26.2441 116.126 26.0871C116.887 25.9729 116.9 25.9594 116.9 25.268V24.5649L116.138 24.6695C114.745 24.8607 114.783 25.049 114.718 17.4728C114.662 10.9351 114.655 10.8248 114.242 9.98522C114.011 9.51657 113.527 8.88864 113.167 8.58983C111.927 7.56302 109 7.01724 106.519 7.3503ZM134.455 7.36393C131.407 7.86362 128.942 10.4589 128.078 14.0774C127.682 15.7332 127.673 18.7423 128.06 20.2042C128.93 23.4992 130.986 25.6638 133.895 26.3504C135.257 26.6716 137.854 26.4986 139.163 25.9991C141.165 25.2359 142.689 23.6536 143.366 21.636C144.036 19.6427 144.042 19.6889 143.103 19.751C142.319 19.803 142.276 19.8348 142.072 20.5226C141.532 22.3402 140.245 23.8606 138.607 24.6189C137.916 24.9383 137.438 25.0065 135.888 25.0065C134.197 25.0065 133.916 24.9582 133.104 24.5292C131.017 23.4262 129.574 20.9532 129.405 18.191L129.35 17.2942L136.649 17.2474L143.949 17.2005L143.978 16.799C144.108 14.9573 143.661 12.7995 142.824 11.2205C141.668 9.04271 139.744 7.71045 137.232 7.34833C135.812 7.14368 135.798 7.14386 134.455 7.36393ZM125.21 7.78219C123.33 8.19848 121.757 9.15068 120.829 10.4343L120.303 11.1602V9.4294V7.69861H119.497H118.691V16.9355V26.1723H119.497H120.303V20.8246C120.303 13.794 120.467 12.9629 122.223 11.0831C123.304 9.92675 124.565 9.32519 126.198 9.18816L127.487 9.08001L127.433 8.34447C127.384 7.66794 127.336 7.60624 126.842 7.57432C126.546 7.5553 125.812 7.64875 125.21 7.78219ZM70.5041 16.9355V26.1723H71.3102H72.1163V16.9355V7.69861H71.3102H70.5041V16.9355ZM138.416 9.25668C140.547 10.1926 142.312 12.9046 142.333 15.2764L142.337 15.7696H135.888H129.439V15.2396C129.439 14.9484 129.635 14.171 129.873 13.5126C131.341 9.46527 134.878 7.70309 138.416 9.25668ZM34.4601 9.39855C35.5602 9.99868 36.6329 11.0992 37.1996 12.2096C37.6595 13.11 38.0756 14.5619 38.0787 15.2764L38.0808 15.7696H31.632C24.3022 15.7696 24.9399 15.9381 25.4719 14.1432C26.2474 11.5263 27.7091 9.80102 29.8195 9.01186C30.2329 8.85725 31.0188 8.78999 31.9902 8.82569C33.2657 8.87268 33.6668 8.96576 34.4601 9.39855ZM113.094 18.1461C112.98 20.5927 112.567 21.8267 111.444 23.0772C110.332 24.3156 108.974 24.9369 107.128 25.0522C105.211 25.1719 104.066 24.8903 103.099 24.0616C102.176 23.2709 101.853 22.5425 101.853 21.2574C101.853 20.0389 102.075 19.4307 102.795 18.6838C103.775 17.6658 104.902 17.377 109.966 16.8454C110.931 16.7441 111.979 16.5479 112.295 16.4094C112.611 16.2709 112.941 16.151 113.029 16.1431C113.118 16.1348 113.147 17.0126 113.094 18.1461ZM40.4991 30.3382C41.2303 30.8775 44.9572 32.8542 46.8838 33.7246C61.7299 40.4313 76.9839 42.0866 91.1432 38.5273C96.968 37.063 102.356 34.8774 107.692 31.8141C108.668 31.2544 109.544 30.7228 109.64 30.6327C109.735 30.5429 108.687 30.964 107.311 31.5686C100.088 34.7412 93.9954 36.3902 85.7287 37.4102C82.4837 37.8106 72.545 37.869 69.071 37.5082C59.8954 36.5551 50.4937 34.2695 42.7152 31.1012C40.0857 30.0301 40.0774 30.0272 40.4991 30.3382ZM1.71654 49.1299C1.71654 51.88 1.73141 51.9996 2.07481 51.9996C2.39564 51.9996 2.43307 51.88 2.43307 50.8534V49.7073L3.77497 49.6393C5.42784 49.5557 5.88553 49.2121 5.88553 48.0538C5.88553 46.7821 4.9938 46.2738 2.74656 46.2645L1.71654 46.2602V49.1299ZM11.9501 46.5759C11.7325 46.9832 9.95672 51.7065 9.95672 51.8784C9.95672 51.9451 10.1075 51.9996 10.2917 51.9996C10.5359 51.9996 10.6879 51.7808 10.8524 51.1925L11.0781 50.3854H12.3834H13.689L13.9967 51.1925C14.2147 51.7641 14.4055 51.9996 14.6506 51.9996C15.0706 51.9996 15.1009 52.1045 13.7458 48.8609C12.6948 46.3454 12.325 45.8748 11.9501 46.5759ZM18.7343 46.3567C18.7343 46.4098 19.218 47.1735 19.8091 48.0538C20.8502 49.604 20.8839 49.6909 20.8839 50.827C20.8839 51.7498 20.9412 51.9996 21.1526 51.9996C21.364 51.9996 21.4213 51.7498 21.4213 50.827C21.4213 49.6909 21.455 49.604 22.4961 48.0538C23.0873 47.1735 23.5709 46.4098 23.5709 46.3567C23.5709 46.3036 23.4217 46.2602 23.2392 46.2602C23.0195 46.2602 22.6412 46.6982 22.1196 47.5564C21.6863 48.2694 21.2511 48.8446 21.1526 48.8345C21.0541 48.8247 20.6193 48.2414 20.1864 47.5383C19.6676 46.6957 19.286 46.2602 19.0668 46.2602C18.8839 46.2602 18.7343 46.3036 18.7343 46.3567ZM27.8105 46.3798C27.7448 46.4455 27.691 47.7369 27.691 49.2495C27.691 51.8662 27.7082 51.9996 28.0439 51.9996C28.3741 51.9996 28.4 51.8515 28.447 49.7128L28.4971 47.426L29.288 49.7214C29.9739 51.7125 30.1265 52.0097 30.4395 51.9634C30.7252 51.9211 30.9527 51.4746 31.5354 49.8116C31.9397 48.6575 32.3284 47.6552 32.3992 47.5846C32.4698 47.5137 32.5276 48.4783 32.5276 49.7277C32.5276 51.6276 32.5717 51.9996 32.7963 51.9996C33.024 51.9996 33.065 51.5613 33.065 49.1299V46.2602H32.6407C32.257 46.2602 32.1343 46.4941 31.3626 48.6932C30.8929 50.0312 30.449 51.0603 30.3759 50.98C30.303 50.8996 30.0638 50.2688 29.8446 49.5783C28.9068 46.625 28.7397 46.2602 28.3239 46.2602C28.1071 46.2602 27.8761 46.314 27.8105 46.3798ZM37.9017 49.1299V51.9996H39.9617C41.6508 51.9996 42.0218 51.9523 42.0218 51.737C42.0218 51.5281 41.6656 51.4641 40.2752 51.4232L38.5286 51.3719V50.3854V49.3989L40.0961 49.3471C41.3278 49.3064 41.6635 49.2391 41.6635 49.0332C41.6635 48.8229 41.3459 48.7712 40.0513 48.7712H38.4391V47.8744V46.9776H40.1409C41.7231 46.9776 41.8426 46.9525 41.8426 46.6189C41.8426 46.2819 41.7231 46.2602 39.8721 46.2602H37.9017V49.1299ZM46.5001 49.1299C46.5001 51.5613 46.5411 51.9996 46.7688 51.9996C46.9927 51.9996 47.0375 51.6409 47.0375 49.8473C47.0375 48.6636 47.107 47.6951 47.1919 47.6951C47.2768 47.6951 47.9821 48.662 48.7594 49.8439C49.8732 51.5378 50.2587 51.9935 50.5799 51.9962L50.9876 51.9996L50.9382 49.1771C50.8945 46.6738 50.854 46.3477 50.5808 46.2952C50.3046 46.2421 50.2677 46.472 50.2225 48.5206L50.1724 50.8053L48.6694 48.5327C46.5873 45.3844 46.5001 45.4084 46.5001 49.1299ZM55.2777 46.6189C55.2777 46.9297 55.3972 46.9776 56.1734 46.9776H57.069V49.4886C57.069 51.88 57.0861 51.9996 57.4273 51.9996C57.7686 51.9996 57.7856 51.88 57.7856 49.4886V46.9776H58.6812C59.4574 46.9776 59.5769 46.9297 59.5769 46.6189C59.5769 46.2801 59.4574 46.2602 57.4273 46.2602C55.3972 46.2602 55.2777 46.2801 55.2777 46.6189ZM71.1248 46.431C70.6204 46.6356 70.3465 47.0049 70.2164 47.6554C70.0724 48.3763 70.692 49.0275 71.7822 49.3014C73.1845 49.6536 73.7285 49.9774 73.7285 50.4593C73.7285 51.1482 73.2766 51.4615 72.2827 51.4615C71.4028 51.4615 71.0494 51.2614 70.5937 50.505C70.4762 50.3097 70.3318 50.2608 70.1738 50.3624C69.9751 50.4902 69.9844 50.617 70.2272 51.0867C70.5845 51.7786 71.1128 51.9996 72.4105 51.9996C73.263 51.9996 73.4693 51.928 73.9215 51.4754C74.9819 50.4136 74.4151 49.3507 72.5228 48.8521C71.0895 48.4744 70.8624 48.3268 70.8624 47.7729C70.8624 46.8435 72.45 46.457 73.16 47.2133C73.3742 47.4416 73.5494 47.7166 73.5494 47.8244C73.5494 47.932 73.7013 47.9804 73.8869 47.9318C74.3483 47.8111 74.1841 47.2707 73.5143 46.7065C72.9625 46.2417 71.8946 46.1185 71.1248 46.431ZM80.0199 46.5669C79.1117 47.0149 78.7455 47.7512 78.7455 49.1299C78.7455 51.0573 79.6108 52.0003 81.3776 51.9989C83.0124 51.9976 83.9397 50.9488 83.9385 49.1028C83.937 46.9093 81.9426 45.6187 80.0199 46.5669ZM88.4175 49.1168V51.9996H90.1193C91.5126 51.9996 91.8211 51.9508 91.8211 51.7306C91.8211 51.5154 91.5529 51.4615 90.4824 51.4615H89.1439L89.0941 48.9079C89.0501 46.6417 89.0092 46.3476 88.731 46.2941C88.443 46.2389 88.4175 46.4677 88.4175 49.1168ZM96.3304 48.6975C96.3885 51.1145 96.3931 51.1383 96.8917 51.5672C97.2748 51.8968 97.6028 51.9996 98.2715 51.9996C100.191 51.9996 100.48 51.5631 100.568 48.5303C100.631 46.3653 100.616 46.2306 100.304 46.2905C100.006 46.3477 99.9665 46.577 99.9215 48.5404C99.8728 50.6548 99.856 50.7387 99.4047 51.094C98.9424 51.4581 98.2103 51.565 97.651 51.3502C97.0522 51.12 96.8369 50.2982 96.8369 48.2421C96.8369 46.5567 96.7946 46.2602 96.5544 46.2602C96.3079 46.2602 96.2792 46.5726 96.3304 48.6975ZM104.898 46.6189C104.898 46.9342 105.017 46.9776 105.883 46.9776H106.868V49.4886C106.868 51.6011 106.911 51.9996 107.137 51.9996C107.363 51.9996 107.406 51.6011 107.406 49.4886V46.9776H108.301C109.078 46.9776 109.197 46.9297 109.197 46.6189C109.197 46.2801 109.078 46.2602 107.048 46.2602C105.017 46.2602 104.898 46.2801 104.898 46.6189ZM113.675 49.1299C113.675 51.5613 113.717 51.9996 113.944 51.9996C114.172 51.9996 114.213 51.5613 114.213 49.1299C114.213 46.6986 114.172 46.2602 113.944 46.2602C113.717 46.2602 113.675 46.6986 113.675 49.1299ZM120.121 46.5893C119.277 47.0347 118.871 47.8889 118.871 49.2196C118.872 51.0512 119.771 52.0003 121.504 51.9989C123.172 51.9976 124.066 50.9819 124.065 49.0908C124.063 46.8928 122.013 45.5921 120.121 46.5893ZM128.663 46.3798C128.597 46.4455 128.544 47.7369 128.544 49.2495C128.544 51.8656 128.561 51.9996 128.896 51.9996C129.225 51.9996 129.252 51.8515 129.299 49.8025L129.35 47.6054L130.831 49.8025C131.89 51.3735 132.414 51.9996 132.667 51.9996C133.006 51.9996 133.022 51.8705 133.022 49.1299C133.022 46.6986 132.981 46.2602 132.753 46.2602C132.529 46.2602 132.485 46.629 132.485 48.5022C132.485 49.7352 132.424 50.7422 132.35 50.7396C132.276 50.7371 131.551 49.7282 130.737 48.4977C129.38 46.4435 128.993 46.0489 128.663 46.3798ZM138.639 46.4381C138.428 46.5233 138.126 46.7784 137.967 47.0047C137.291 47.9716 137.884 48.9737 139.335 49.3152C140.732 49.6438 141.262 49.9607 141.262 50.4668C141.262 51.1484 140.807 51.4615 139.816 51.4615C138.936 51.4615 138.583 51.2614 138.127 50.505C138.01 50.3097 137.865 50.2608 137.707 50.3624C137.508 50.4903 137.516 50.6139 137.754 51.0738C138.142 51.8249 138.534 51.9996 139.831 51.9996C140.808 51.9996 140.99 51.941 141.455 51.4754C142.516 50.4136 141.949 49.3507 140.056 48.8521C138.632 48.4767 138.396 48.3259 138.396 47.7907C138.396 46.8198 139.956 46.4277 140.694 47.2133C140.908 47.4416 141.083 47.7216 141.083 47.8355C141.083 47.9494 141.204 47.996 141.352 47.9393C141.765 47.7804 141.673 47.3611 141.097 46.7845C140.674 46.3608 140.425 46.2624 139.798 46.2715C139.372 46.2778 138.85 46.3528 138.639 46.4381ZM82.3137 47.0605C83.4842 47.6665 83.6999 49.9352 82.6836 50.9527C82.274 51.3629 82.0169 51.4615 81.3584 51.4615C79.7637 51.4615 78.8767 49.9158 79.4583 48.1508C79.8397 46.9938 81.1895 46.4783 82.3137 47.0605ZM122.578 47.1495C123.673 47.8177 123.8 49.9616 122.803 50.959C122.407 51.3555 122.137 51.4615 121.521 51.4615C120.585 51.4615 119.995 51.0869 119.657 50.278C119.359 49.5632 119.346 49.0908 119.599 48.179C119.942 46.9409 121.407 46.4345 122.578 47.1495ZM4.90101 47.2569C5.1561 47.4357 5.29922 47.7221 5.29922 48.0538C5.29922 48.794 4.72761 49.1299 3.46793 49.1299H2.43307V48.0538V46.9776H3.46793C4.11479 46.9776 4.65237 47.0824 4.90101 47.2569ZM12.98 48.4641C13.189 49.035 13.3603 49.5394 13.3603 49.5851C13.3603 49.6307 12.9169 49.668 12.375 49.668C11.8331 49.668 11.3898 49.6378 11.3898 49.6009C11.3898 49.564 11.5025 49.2208 11.6402 48.8386C12.3722 46.8072 12.3727 46.8071 12.98 48.4641Z" fill="black"/>
</g>
<defs>
<clipPath id="clip0">
<rect width="216" height="52" fill="white"/>
</clipPath>
</defs>
</svg>
