<svg width="75" height="76" viewBox="0 0 75 76" fill="none" xmlns="http://www.w3.org/2000/svg">
<mask id="path-3-inside-1" fill="white">
<path d="M48.6086 38.901C48.858 40.3149 48.8195 41.7654 48.4956 43.1694C48.1716 44.5735 47.5685 45.9037 46.7206 47.0842C45.8726 48.2646 44.7966 49.2721 43.5538 50.0492C42.311 50.8262 40.9258 51.3576 39.4773 51.613C38.0289 51.8684 36.5455 51.8428 35.1119 51.5377C33.6783 51.2326 32.3225 50.6539 31.122 49.8346C29.9215 49.0154 28.8997 47.9717 28.1151 46.7631C27.3304 45.5545 26.7983 44.2046 26.5489 42.7907L37.5788 40.8458L48.6086 38.901Z"/>
</mask>
<path d="M48.6086 38.901C48.858 40.3149 48.8195 41.7654 48.4956 43.1694C48.1716 44.5735 47.5685 45.9037 46.7206 47.0842C45.8726 48.2646 44.7966 49.2721 43.5538 50.0492C42.311 50.8262 40.9258 51.3576 39.4773 51.613C38.0289 51.8684 36.5455 51.8428 35.1119 51.5377C33.6783 51.2326 32.3225 50.6539 31.122 49.8346C29.9215 49.0154 28.8997 47.9717 28.1151 46.7631C27.3304 45.5545 26.7983 44.2046 26.5489 42.7907L37.5788 40.8458L48.6086 38.901Z" stroke="#48C5B5" stroke-width="4" mask="url(#path-3-inside-1)"/>
<path d="M48.9039 28.2886C48.5458 26.2581 46.6095 24.9022 44.579 25.2603C42.5484 25.6183 41.1926 27.5546 41.5506 29.5852" stroke="#48C5B5" stroke-width="2"/>
<path d="M29.9957 31.6226C29.6376 29.5921 27.7013 28.2362 25.6708 28.5943C23.6402 28.9523 22.2844 30.8886 22.6424 32.9192" stroke="#48C5B5" stroke-width="2"/>
<circle cx="36.5137" cy="34.8057" r="2.2" transform="rotate(-10 36.5137 34.8057)" stroke="#48C5B5" stroke-width="2"/>
<path d="M42.4537 68.4861C25.593 71.4591 9.51455 60.2009 6.54155 43.3402L4.57193 43.6875C7.73674 61.636 24.8525 73.6206 42.801 70.4558L42.4537 68.4861ZM67.5996 32.574C70.5726 49.4347 59.3144 65.5131 42.4537 68.4861L42.801 70.4558C60.7495 67.291 72.7341 50.1752 69.5692 32.2267L67.5996 32.574ZM31.6875 7.42807C48.5482 4.45507 64.6266 15.7133 67.5996 32.574L69.5692 32.2267C66.4044 14.2782 49.2887 2.29364 31.3402 5.45845L31.6875 7.42807ZM31.3402 5.45845C13.3917 8.62326 1.40713 25.739 4.57193 43.6875L6.54155 43.3402C3.56855 26.4795 14.8268 10.4011 31.6875 7.42807L31.3402 5.45845Z" fill="#48C5B5"/>
</svg>
