<svg width="109" height="38" viewBox="0 0 109 38" fill="none" xmlns="http://www.w3.org/2000/svg">
<g clip-path="url(#clip0)">
<path d="M14.9656 12.7429C18.5892 9.49218 22.2233 6.25197 25.8324 2.98419C27.1085 1.82885 28.4306 0.802171 30.1558 0.389923C31.8563 -0.0244914 33.6455 0.12582 35.253 0.818147C36.8605 1.51047 38.1991 2.7072 39.0663 4.2275C40.8374 7.34429 40.3674 11.3263 37.7744 13.8116C35.3548 16.1354 32.7973 18.3305 30.3028 20.5861C29.8814 20.9655 29.4717 21.3568 29.0555 21.7441C29.0194 21.7959 28.9726 21.8395 28.9182 21.8719C28.8639 21.9043 28.8033 21.9247 28.7405 21.9318C28.3721 21.9779 28.0006 21.9933 27.6297 21.9778C21.215 21.9778 14.8002 21.9869 8.3841 21.9712C6.96064 21.9482 5.55384 22.2798 4.29052 22.9362C4.06733 23.0543 3.84413 23.2355 3.56055 23.0898C4.90495 21.7204 6.39376 20.5086 7.80381 19.2115C9.17052 17.9564 10.5609 16.717 11.9302 15.4763C12.015 15.287 12.1379 15.1172 12.2913 14.9774C13.0396 14.4103 13.6147 13.6553 14.3525 13.0777C14.5386 12.9355 14.7454 12.8226 14.9656 12.7429Z" fill="#F05C3E"/>
<path d="M88.7797 29.5569C88.7797 31.3358 88.7797 32.9888 88.7797 34.6417C88.7869 35.0342 88.7552 35.4265 88.6851 35.8128C88.5118 36.6859 88.0287 37.2675 87.1622 37.5195C86.1945 37.8163 85.161 37.8227 84.1898 37.5379C83.1395 37.2215 82.5592 36.4732 82.5027 35.3822C82.4909 35.1642 82.4922 34.945 82.4922 34.7257V11.2749C82.4922 9.39612 83.3049 8.47185 85.1718 8.20664C85.7798 8.12601 86.3978 8.16616 86.9902 8.3248C88.2479 8.64252 88.5749 9.01144 88.9425 10.4701C88.9818 10.4701 89.0383 10.4766 89.058 10.4543C92.5857 6.22418 101.347 6.75721 103.73 14.2328C104.852 17.7514 104.911 21.3224 103.739 24.8515C101.672 31.0339 96.0255 32.4492 91.6523 31.219C91.1311 31.0572 90.6299 30.837 90.1582 30.5625C89.6681 30.2714 89.2065 29.9347 88.7797 29.5569Z" fill="#21285E"/>
<path d="M60.2994 13.8034H57.8049C55.9262 13.8034 54.0461 13.7969 52.1674 13.8034C51.226 13.8034 50.2965 13.8034 49.8305 12.7662C49.2974 11.5781 49.2515 10.403 50.0038 9.28052C50.3425 8.77637 50.8729 8.55712 51.4729 8.55712C56.6076 8.55712 61.7436 8.53874 66.8783 8.55712C68.631 8.56631 69.5631 10.1168 69.0656 12.0665C68.8529 12.8962 68.3671 13.5579 67.8104 14.1802C64.6455 17.7145 61.4854 21.2471 58.3301 24.7779L57.5423 25.6588H66.6407C68.7702 25.6588 69.7614 26.8969 69.3124 28.9975C69.0091 30.4167 68.4157 30.9051 66.9492 30.9064C61.8578 30.9064 56.7664 30.8723 51.6751 30.9261C49.7543 30.9458 48.5241 29.5725 49.0046 27.4837C49.2501 26.4019 49.9118 25.5656 50.6247 24.7595L59.7861 14.4139C59.9239 14.2537 60.0605 14.087 60.2994 13.8034Z" fill="#21285E"/>
<path d="M28.8474 21.8017L29.0561 21.744C30.4924 21.8529 31.9353 21.6573 33.3729 21.8884C37.347 22.5278 40.3312 26.3522 39.9557 30.3736C39.5474 34.781 36.4674 37.7494 32.0521 37.7849C24.6002 37.8439 17.1482 37.7993 9.69625 37.7967C9.52295 37.7967 9.34965 37.7691 9.1711 37.756C9.13302 37.5262 9.31683 37.5078 9.456 37.4934C11.3663 37.2046 12.7999 36.086 14.1824 34.84C16.2029 33.0086 18.2379 31.1955 20.2663 29.3718C21.7753 28.0152 23.2825 26.6585 24.7879 25.3019C25.9866 24.2201 27.1669 23.1186 28.3997 22.0774C28.5342 21.9635 28.6851 21.8705 28.8474 21.8017Z" fill="#00ADB7"/>
<path d="M28.8466 21.8018C27.3013 23.2118 25.7626 24.6284 24.2108 26.0293C22.2362 27.8122 20.2555 29.5881 18.2687 31.357C16.5317 32.9128 14.8223 34.5079 13.046 36.0151C12.0364 36.8916 10.7931 37.4547 9.46837 37.6352C9.36584 37.6623 9.26738 37.7029 9.1756 37.756C4.52272 38.2352 1.48206 35.3994 0.459324 32.4401C-0.639565 29.2656 0.232193 25.4818 3.56037 23.0897C5.26712 22.0289 7.13406 21.7348 9.12702 21.7493C15.4381 21.7979 21.7518 21.7677 28.0628 21.769C28.3241 21.769 28.5854 21.7913 28.8466 21.8018Z" fill="#21285E"/>
<path d="M14.438 13.1078C13.8165 13.8377 13.1218 14.502 12.3649 15.0903C12.1549 15.1389 12.0104 15.3529 11.7741 15.3279C9.01706 16.6106 6.32169 16.5594 3.71561 14.9433C0.923092 13.2103 -0.513209 9.77967 0.170806 6.5539C0.854822 3.32813 3.562 0.724674 6.77726 0.276979C10.0962 -0.185159 12.7995 0.951804 14.6717 3.69049C16.5622 6.46331 16.5688 9.40418 14.9185 12.3372C14.8765 12.412 14.8423 12.4921 14.8043 12.5696C14.7883 12.6813 14.7469 12.7878 14.6835 12.8811C14.62 12.9744 14.536 13.052 14.438 13.1078Z" fill="#F7981C"/>
<path d="M78.4684 19.9911C78.4684 22.7626 78.4684 25.5341 78.4684 28.3056C78.4684 30.1909 77.6426 31.0535 75.7507 31.1769C75.4239 31.2019 75.0956 31.2019 74.7687 31.1769C72.7994 30.9997 72.0248 30.1437 72.0234 28.1757C72.0234 22.763 72.0234 17.3509 72.0234 11.9391C72.0234 10.7168 72.2401 9.56413 73.4676 9.02322C74.8238 8.42323 76.2417 8.40222 77.5376 9.23066C78.3122 9.7243 78.4723 10.5514 78.471 11.4179C78.4667 14.2748 78.4658 17.1325 78.4684 19.9911Z" fill="#21285E"/>
<path d="M71.7383 3.40548C71.7278 1.41252 73.1654 0.0182278 75.2503 0.00116022C77.4376 -0.0172202 78.9001 1.34556 78.8975 3.40154C78.8975 5.41814 77.473 6.79799 75.3855 6.81505C73.1996 6.82556 71.7488 5.47066 71.7383 3.40548Z" fill="#21285E"/>
<path d="M108.458 6.73511C108.362 6.99769 108.276 7.26027 108.165 7.52284C108.093 7.68958 108.085 7.93378 107.808 7.91671C107.531 7.89964 107.537 7.66463 107.458 7.50052C107.375 7.26397 107.246 7.04594 107.079 6.85852C107.079 7.14342 107.087 7.42963 107.079 7.71452C107.079 7.81955 107.042 7.94297 106.903 7.94953C106.871 7.95426 106.837 7.95154 106.806 7.94158C106.775 7.93162 106.746 7.91468 106.723 7.89205C106.699 7.86941 106.68 7.84167 106.669 7.81091C106.657 7.78016 106.653 7.7472 106.656 7.71452C106.651 7.14736 106.651 6.57844 106.656 6.00777C106.654 5.97492 106.659 5.94198 106.669 5.91089C106.68 5.87979 106.697 5.85117 106.719 5.8267C106.741 5.80223 106.768 5.78242 106.798 5.76842C106.827 5.75442 106.86 5.74653 106.893 5.74519C106.978 5.72412 107.068 5.73696 107.144 5.78103C107.221 5.8251 107.277 5.89696 107.301 5.98151C107.458 6.42395 107.624 6.86246 107.826 7.42569C108.016 6.88609 108.167 6.48697 108.295 6.08129C108.372 5.83578 108.506 5.70318 108.769 5.74651C109.058 5.79377 108.984 6.03009 108.987 6.21258C108.995 6.67078 108.987 7.1316 108.987 7.58586C108.987 7.74209 108.987 7.92852 108.795 7.94296C108.525 7.96266 108.574 7.72897 108.569 7.56748C108.56 7.28784 108.569 7.0095 108.569 6.72986L108.458 6.73511Z" fill="#272E62"/>
<path d="M105.451 5.73862C105.538 5.73058 105.626 5.73058 105.714 5.73862C105.929 5.78195 106.278 5.60733 106.333 5.89617C106.396 6.22701 106.036 6.0931 105.854 6.14299C105.61 6.20863 105.669 6.40557 105.665 6.56443C105.656 6.93335 105.665 7.30227 105.656 7.67119C105.656 7.83924 105.585 7.98497 105.393 7.96134C105.251 7.94296 105.194 7.81824 105.196 7.66988C105.196 7.38892 105.196 7.10665 105.196 6.82438C105.196 6.46727 105.303 6.04978 104.699 6.1036C104.647 6.1036 104.546 6.00383 104.536 5.93949C104.515 5.8082 104.62 5.75043 104.739 5.74781C104.978 5.74781 105.217 5.74781 105.456 5.74781L105.451 5.73862Z" fill="#32386A"/>
<path d="M14.4375 13.1078C14.5028 12.8985 14.629 12.7134 14.7999 12.5761L14.9653 12.7428C14.834 12.9293 14.704 13.1183 14.4375 13.1078Z" fill="#FCE1D1"/>
<path d="M11.7734 15.3279C11.9572 15.215 12.0872 14.9721 12.3642 15.0903C12.2586 15.2573 12.1079 15.391 11.9297 15.4763L11.7734 15.3279Z" fill="#FBE0CF"/>
<path d="M97.9795 19.6484C97.9677 21.2829 97.7326 22.689 97.0604 23.998C96.337 25.3962 95.2066 26.159 93.618 26.2299C91.9283 26.2981 90.5091 25.7349 89.7306 24.1975C88.2339 21.2435 88.1682 18.1989 89.829 15.3106C91.4242 12.5378 95.271 12.6283 96.9187 15.371C97.7366 16.7377 97.9663 18.258 97.9795 19.6484Z" fill="#FEFEFE"/>
</g>
<defs>
<clipPath id="clip0">
<rect width="109" height="37.8152" fill="white"/>
</clipPath>
</defs>
</svg>
