<svg width="42" height="42" viewBox="0 0 42 42" fill="none" xmlns="http://www.w3.org/2000/svg">
<path d="M21 9V33" stroke="#48C5B5" stroke-width="2"/>
<path d="M9 21H33" stroke="#48C5B5" stroke-width="2"/>
<path d="M12.667 12.6667L29.6376 29.6373" stroke="#48C5B5" stroke-width="2"/>
<path d="M12.667 29.3333L29.6376 12.3627" stroke="#48C5B5" stroke-width="2"/>
<path d="M21 40C10.5066 40 2 31.4934 2 21H0C0 32.598 9.40202 42 21 42V40ZM40 21C40 31.4934 31.4934 40 21 40V42C32.598 42 42 32.598 42 21H40ZM21 2C31.4934 2 40 10.5066 40 21H42C42 9.40202 32.598 0 21 0V2ZM21 0C9.40202 0 0 9.40202 0 21H2C2 10.5066 10.5066 2 21 2V0Z" fill="#48C5B5"/>
</svg>
