<svg width="48" height="48" viewBox="0 0 48 48" fill="none" xmlns="http://www.w3.org/2000/svg">
<path d="M0 24C0 10.7452 10.7452 0 24 0C37.2548 0 48 10.7452 48 24C48 37.2548 37.2548 48 24 48C10.7452 48 0 37.2548 0 24Z" fill="#D886FF"/>
<ellipse cx="24" cy="17.8001" rx="9.2" ry="3.4" stroke="white" stroke-width="2"/>
<path d="M33.2 31.2002C33.2 31.673 32.962 32.1411 32.4997 32.5779C32.0373 33.0146 31.3597 33.4115 30.5054 33.7458C29.6511 34.0801 28.6369 34.3452 27.5207 34.5262C26.4045 34.7071 25.2081 34.8002 24 34.8002C22.7918 34.8002 21.5955 34.7071 20.4793 34.5262C19.3631 34.3452 18.3489 34.0801 17.4946 33.7458C16.6403 33.4115 15.9626 33.0146 15.5003 32.5779C15.038 32.1411 14.8 31.673 14.8 31.2002" stroke="white" stroke-width="2"/>
<path d="M33.2 26.8C33.2 27.2728 32.962 27.7409 32.4997 28.1777C32.0373 28.6145 31.3597 29.0113 30.5054 29.3456C29.6511 29.6799 28.6369 29.9451 27.5207 30.126C26.4045 30.3069 25.2081 30.4 24 30.4C22.7918 30.4 21.5955 30.3069 20.4793 30.126C19.3631 29.9451 18.3489 29.6799 17.4946 29.3456C16.6403 29.0113 15.9626 28.6145 15.5003 28.1777C15.038 27.7409 14.8 27.2728 14.8 26.8" stroke="white" stroke-width="2"/>
<path d="M33.2 22.4001C33.2 22.8729 32.962 23.341 32.4997 23.7778C32.0373 24.2146 31.3597 24.6114 30.5054 24.9457C29.6511 25.28 28.6369 25.5452 27.5207 25.7261C26.4045 25.907 25.2081 26.0001 24 26.0001C22.7918 26.0001 21.5955 25.907 20.4793 25.7261C19.3631 25.5452 18.3489 25.28 17.4946 24.9457C16.6403 24.6114 15.9626 24.2146 15.5003 23.7778C15.038 23.341 14.8 22.8729 14.8 22.4001" stroke="white" stroke-width="2"/>
<path d="M14.8 31.2002V18.0002" stroke="white" stroke-width="2"/>
<path d="M33.2 31.2002V18.0002" stroke="white" stroke-width="2"/>
</svg>
