<svg width="160" height="160" viewBox="0 0 160 160" fill="none" xmlns="http://www.w3.org/2000/svg">
<path d="M0 80C0 35.8172 35.8172 0 80 0C124.183 0 160 35.8172 160 80C160 124.183 124.183 160 80 160C35.8172 160 0 124.183 0 80Z" fill="white"/>
<g clip-path="url(#clip0_1113:25383)">
<path d="M104 46.6667L72 128" stroke="#48C5B5"/>
<path d="M57.333 128L71.9997 92" stroke="#48C5B5"/>
<path d="M68 46.6667H97.3333" stroke="#48C5B5"/>
<path d="M65.333 52H94.6663" stroke="#48C5B5"/>
<path d="M64 57.3333H93.3333" stroke="#48C5B5"/>
<path d="M61.333 62.6667H90.6663" stroke="#48C5B5"/>
<path d="M58.666 68H87.9993" stroke="#48C5B5"/>
<path d="M57.333 73.3333H86.6663" stroke="#48C5B5"/>
<path d="M54.666 78.6667H83.9993" stroke="#48C5B5"/>
<path d="M53.333 84H82.6663" stroke="#48C5B5"/>
</g>
<defs>
<clipPath id="clip0_1113:25383">
<rect width="96" height="96" fill="white" transform="translate(32 32)"/>
</clipPath>
</defs>
</svg>
