<svg width="32" height="32" viewBox="0 0 32 32" fill="none" xmlns="http://www.w3.org/2000/svg">
<path d="M0 0H32V32H0V0Z" fill="black"/>
<path fill-rule="evenodd" clip-rule="evenodd" d="M24.7155 12.2857H18.7105V10H27V11.1429C27 12.5686 26.7284 13.9805 26.2007 15.2977C25.6731 16.615 24.8996 17.8118 23.9246 18.82C22.9496 19.8282 21.7921 20.6279 20.5182 21.1735C19.2443 21.7192 17.8789 22 16.5 22C15.1211 22 13.7557 21.7192 12.4818 21.1735C11.2079 20.6279 10.0504 19.8282 9.07539 18.82C8.10924 17.821 7.40725 16.8154 6.79928 15.2977C6.19591 13.7915 6.00001 12.7732 6 11.1429L8.21053 11.1429C8.21053 12.473 8.34926 13.1941 8.84153 14.423C9.32921 15.6404 9.85985 16.3987 10.6385 17.2038C11.4082 17.9997 12.322 18.6311 13.3278 19.0618C14.3335 19.4926 15.4114 19.7143 16.5 19.7143C17.5886 19.7143 18.6665 19.4926 19.6722 19.0618C20.678 18.6311 21.5918 17.9997 22.3615 17.2038C23.1313 16.4078 23.7419 15.4629 24.1585 14.423C24.4333 13.737 24.6201 13.0185 24.7155 12.2857Z" fill="white"/>
</svg>
