<svg width="74" height="74" viewBox="0 0 74 74" fill="none" xmlns="http://www.w3.org/2000/svg">
<mask id="path-3-inside-1" fill="white">
<path d="M50.2012 40.3C50.2012 42.0729 49.852 43.8284 49.1735 45.4663C48.4951 47.1042 47.5007 48.5924 46.2471 49.846C44.9935 51.0996 43.5053 52.094 41.8674 52.7724C40.2295 53.4509 38.474 53.8 36.7012 53.8C34.9283 53.8 33.1728 53.4509 31.5349 52.7724C29.8971 52.094 28.4088 51.0996 27.1552 49.846C25.9016 48.5924 24.9072 47.1042 24.2288 45.4663C23.5504 43.8284 23.2012 42.0729 23.2012 40.3L36.7012 40.3H50.2012Z"/>
</mask>
<path d="M50.2012 40.3C50.2012 42.0729 49.852 43.8284 49.1735 45.4663C48.4951 47.1042 47.5007 48.5924 46.2471 49.846C44.9935 51.0996 43.5053 52.094 41.8674 52.7724C40.2295 53.4509 38.474 53.8 36.7012 53.8C34.9283 53.8 33.1728 53.4509 31.5349 52.7724C29.8971 52.094 28.4088 51.0996 27.1552 49.846C25.9016 48.5924 24.9072 47.1042 24.2288 45.4663C23.5504 43.8284 23.2012 42.0729 23.2012 40.3L36.7012 40.3H50.2012Z" stroke="#D886FF" stroke-width="4" mask="url(#path-3-inside-1)"/>
<circle cx="25.0008" cy="26.2" r="3.2" stroke="#D886FF" stroke-width="2"/>
<circle cx="48.4012" cy="26.2" r="3.2" stroke="#D886FF" stroke-width="2"/>
<line x1="33.0738" y1="36.0253" x2="38.0186" y2="23.7865" stroke="#D886FF" stroke-width="2"/>
<path d="M37 72C17.67 72 2 56.33 2 37H0C0 57.4345 16.5655 74 37 74V72ZM72 37C72 56.33 56.33 72 37 72V74C57.4345 74 74 57.4345 74 37H72ZM37 2C56.33 2 72 17.67 72 37H74C74 16.5655 57.4345 0 37 0V2ZM37 0C16.5655 0 0 16.5655 0 37H2C2 17.67 17.67 2 37 2V0Z" fill="#D886FF"/>
</svg>
