<svg width="283" height="283" viewBox="0 0 283 283" fill="none" xmlns="http://www.w3.org/2000/svg">
<path d="M0 198C0 166.52 25.5198 141 57 141C88.4802 141 114 166.52 114 198C114 229.48 88.4802 255 57 255C25.5198 255 0 229.48 0 198Z" fill="white"/>
<g clip-path="url(#clip0)">
<path d="M57 163.8V232.2" stroke="#017AFF" stroke-width="2"/>
<path d="M22.8008 198H91.2008" stroke="#017AFF" stroke-width="2"/>
<path d="M33.25 174.25L81.6161 222.616" stroke="#017AFF" stroke-width="2"/>
<path d="M33.25 221.75L81.6161 173.384" stroke="#017AFF" stroke-width="2"/>
</g>
<path d="M0 59C0 31.3858 22.3858 9 50 9C77.6142 9 100 31.3858 100 59C100 86.6142 77.6142 109 50 109C22.3858 109 0 86.6142 0 59Z" fill="#FC7B33"/>
<mask id="path-7-inside-1" fill="white">
<path d="M68.334 63.5835C68.334 66.0458 67.849 68.484 66.9067 70.7588C65.9645 73.0337 64.5833 75.1007 62.8422 76.8417C61.1011 78.5828 59.0342 79.964 56.7593 80.9062C54.4844 81.8485 52.0463 82.3335 49.584 82.3335C47.1217 82.3335 44.6835 81.8485 42.4087 80.9062C40.1338 79.964 38.0668 78.5828 36.3257 76.8417C34.5846 75.1006 33.2035 73.0337 32.2612 70.7588C31.319 68.484 30.834 66.0458 30.834 63.5835L49.584 63.5835H68.334Z"/>
</mask>
<path d="M68.334 63.5835C68.334 66.0458 67.849 68.484 66.9067 70.7588C65.9645 73.0337 64.5833 75.1007 62.8422 76.8417C61.1011 78.5828 59.0342 79.964 56.7593 80.9062C54.4844 81.8485 52.0463 82.3335 49.584 82.3335C47.1217 82.3335 44.6835 81.8485 42.4087 80.9062C40.1338 79.964 38.0668 78.5828 36.3257 76.8417C34.5846 75.1006 33.2035 73.0337 32.2612 70.7588C31.319 68.484 30.834 66.0458 30.834 63.5835L49.584 63.5835H68.334Z" stroke="white" stroke-width="4" mask="url(#path-7-inside-1)"/>
<path d="M38.1667 44.0001C38.1667 46.6695 36.0027 48.8334 33.3333 48.8334C30.664 48.8334 28.5 46.6695 28.5 44.0001C28.5 41.3307 30.664 39.1667 33.3333 39.1667C36.0027 39.1667 38.1667 41.3307 38.1667 44.0001Z" stroke="white" stroke-width="2"/>
<path d="M70.6667 44.0001C70.6667 46.6695 68.5027 48.8334 65.8333 48.8334C63.164 48.8334 61 46.6695 61 44.0001C61 41.3307 63.164 39.1667 65.8333 39.1667C68.5027 39.1667 70.6667 41.3307 70.6667 44.0001Z" stroke="white" stroke-width="2"/>
<line x1="44.9068" y1="57.7921" x2="51.7746" y2="40.7938" stroke="white" stroke-width="2"/>
<g clip-path="url(#clip1)">
<path d="M202 225.333L186 266" stroke="#D886FF" stroke-width="2"/>
<path d="M178.666 266L185.999 248" stroke="#D886FF" stroke-width="2"/>
<path d="M184 225.333H198.667" stroke="#D886FF" stroke-width="2"/>
<path d="M182.666 228H197.333" stroke="#D886FF" stroke-width="2"/>
<path d="M182 230.667H196.667" stroke="#D886FF" stroke-width="2"/>
<path d="M180.666 233.333H195.333" stroke="#D886FF" stroke-width="2"/>
<path d="M179.332 236H193.999" stroke="#D886FF" stroke-width="2"/>
<path d="M178.666 238.667H193.333" stroke="#D886FF" stroke-width="2"/>
<path d="M177.332 241.333H191.999" stroke="#D886FF" stroke-width="2"/>
<path d="M176.666 244H191.333" stroke="#D886FF" stroke-width="2"/>
</g>
<path d="M190 281C168.461 281 151 263.539 151 242H149C149 264.644 167.356 283 190 283V281ZM229 242C229 263.539 211.539 281 190 281V283C212.644 283 231 264.644 231 242H229ZM190 203C211.539 203 229 220.461 229 242H231C231 219.356 212.644 201 190 201V203ZM190 201C167.356 201 149 219.356 149 242H151C151 220.461 168.461 203 190 203V201Z" fill="#D886FF"/>
<path d="M119 81C119 36.2649 155.265 0 200 0H202C246.735 0 283 36.2649 283 81C283 125.735 246.735 162 202 162H200C155.265 162 119 125.735 119 81Z" fill="#48C5B5"/>
<ellipse cx="201.002" cy="60.0749" rx="31.4333" ry="11.475" stroke="white" stroke-width="2"/>
<path d="M232.435 105.3C232.435 106.895 231.622 108.475 230.042 109.949C228.463 111.424 226.147 112.763 223.228 113.891C220.31 115.019 216.844 115.914 213.031 116.525C209.217 117.136 205.13 117.45 201.002 117.45C196.874 117.45 192.786 117.136 188.973 116.525C185.159 115.914 181.694 115.019 178.775 113.891C175.856 112.763 173.541 111.424 171.961 109.949C170.381 108.475 169.568 106.895 169.568 105.3" stroke="white" stroke-width="2"/>
<path d="M232.435 90.45C232.435 92.0455 231.622 93.6255 230.042 95.0996C228.463 96.5737 226.147 97.9131 223.228 99.0413C220.31 100.17 216.844 101.064 213.031 101.675C209.217 102.286 205.13 102.6 201.002 102.6C196.874 102.6 192.786 102.286 188.973 101.675C185.159 101.064 181.694 100.17 178.775 99.0413C175.856 97.9131 173.541 96.5737 171.961 95.0996C170.381 93.6254 169.568 92.0455 169.568 90.45" stroke="white" stroke-width="2"/>
<path d="M232.435 75.5999C232.435 77.1954 231.622 78.7754 230.042 80.2495C228.463 81.7236 226.147 83.063 223.228 84.1912C220.31 85.3194 216.844 86.2144 213.031 86.825C209.217 87.4356 205.13 87.7499 201.002 87.7499C196.874 87.7499 192.786 87.4356 188.973 86.825C185.159 86.2144 181.694 85.3194 178.775 84.1912C175.856 83.063 173.541 81.7236 171.961 80.2495C170.381 78.7754 169.568 77.1954 169.568 75.5999" stroke="white" stroke-width="2"/>
<path d="M169.568 105.3V60.7498" stroke="white" stroke-width="2"/>
<path d="M232.436 105.3V60.7498" stroke="white" stroke-width="2"/>
<defs>
<clipPath id="clip0">
<rect width="68.4" height="68.4" fill="white" transform="translate(22.8008 163.8)"/>
</clipPath>
<clipPath id="clip1">
<rect width="48" height="48" fill="white" transform="translate(166 218)"/>
</clipPath>
</defs>
</svg>
