<svg width="520" height="488" viewBox="0 0 520 488" fill="none" xmlns="http://www.w3.org/2000/svg">
<circle cx="385" cy="238" r="135" fill="white"/>
<path d="M319.887 234L322.371 224.028C322.425 223.812 322.461 223.65 322.479 223.434H322.551C322.569 223.65 322.605 223.812 322.659 224.028L325.143 234H327.231L330.273 221.22H328.527L326.313 231.516C326.241 231.858 326.223 232.02 326.205 232.218H326.151C326.133 232.038 326.097 231.876 326.007 231.516L323.379 221.22H321.651L319.023 231.516C318.933 231.876 318.897 232.038 318.879 232.218H318.825C318.807 232.02 318.789 231.858 318.717 231.516L316.503 221.22H314.757L317.799 234H319.887ZM339.018 228.87C339.018 226.17 337.614 224.784 335.184 224.784C332.61 224.784 331.098 226.602 331.098 229.608C331.098 232.578 332.628 234.216 335.202 234.216C337.02 234.216 338.334 233.352 338.964 231.714L337.704 231.156C337.308 232.254 336.462 232.866 335.31 232.866C333.708 232.866 332.646 231.714 332.628 229.95H339.018V228.87ZM332.628 228.708C332.664 227.016 333.564 225.99 335.148 225.99C336.624 225.99 337.47 226.854 337.47 228.51V228.708H332.628ZM342.767 221.346C342.611 221.97 342.383 222.672 342.083 223.452C341.795 224.22 341.507 224.922 341.219 225.558H340.049C340.169 225.102 340.283 224.616 340.391 224.1C340.511 223.572 340.619 223.056 340.715 222.552C340.811 222.036 340.889 221.568 340.949 221.148H342.641L342.767 221.346ZM345.751 225H344.329V234H345.859V230.148C345.859 229.068 345.895 227.862 346.759 226.998C347.191 226.566 347.803 226.296 348.739 226.296H348.811V224.802C348.703 224.784 348.595 224.784 348.487 224.784C347.119 224.784 346.183 225.792 345.751 227.052V225ZM357.704 228.87C357.704 226.17 356.3 224.784 353.87 224.784C351.296 224.784 349.784 226.602 349.784 229.608C349.784 232.578 351.314 234.216 353.888 234.216C355.706 234.216 357.02 233.352 357.65 231.714L356.39 231.156C355.994 232.254 355.148 232.866 353.996 232.866C352.394 232.866 351.332 231.714 351.314 229.95H357.704V228.87ZM351.314 228.708C351.35 227.016 352.25 225.99 353.834 225.99C355.31 225.99 356.156 226.854 356.156 228.51V228.708H351.314ZM367.442 234.216C368.702 234.216 369.818 233.406 370.232 232.308V234H371.672V225H370.142V229.842C370.142 231.678 369.17 232.902 367.73 232.902C366.542 232.902 365.894 232.074 365.894 230.562V225H364.364V230.742C364.364 232.848 365.174 234.216 367.442 234.216ZM375.901 237.51V232.578C376.297 233.46 377.269 234.216 378.655 234.216C380.833 234.216 382.381 232.38 382.381 229.5C382.381 226.656 380.923 224.784 378.745 224.784C377.431 224.784 376.387 225.432 375.811 226.674V225H374.371V237.51H375.901ZM378.295 232.866C376.801 232.866 375.865 231.642 375.865 229.698V229.266C375.865 227.322 376.837 226.134 378.349 226.134C379.861 226.134 380.761 227.376 380.761 229.5C380.761 231.606 379.825 232.866 378.295 232.866ZM386.621 225V223.794C386.621 222.696 386.999 222.192 387.917 222.192C388.205 222.192 388.547 222.228 388.871 222.282V220.968C388.529 220.878 388.151 220.842 387.719 220.842C386.117 220.842 385.091 221.94 385.091 223.578V225H383.435V226.26H385.091V234H386.621V226.26H388.871V225H386.621ZM392 225H390.578V234H392.108V230.148C392.108 229.068 392.144 227.862 393.008 226.998C393.44 226.566 394.052 226.296 394.988 226.296H395.06V224.802C394.952 224.784 394.844 224.784 394.736 224.784C393.368 224.784 392.432 225.792 392 227.052V225ZM400.226 234.216C402.764 234.216 404.42 232.434 404.42 229.5C404.42 226.566 402.764 224.784 400.226 224.784C397.688 224.784 396.032 226.566 396.032 229.5C396.032 232.434 397.688 234.216 400.226 234.216ZM400.226 232.884C398.606 232.884 397.652 231.732 397.652 229.5C397.652 227.268 398.606 226.116 400.226 226.116C401.846 226.116 402.8 227.268 402.8 229.5C402.8 231.732 401.846 232.884 400.226 232.884ZM408.104 234V229.302C408.104 227.304 409.022 226.098 410.516 226.098C411.83 226.098 412.496 226.908 412.496 228.492V234H414.026V228.402C414.026 226.008 413 224.784 411.02 224.784C409.598 224.784 408.608 225.432 408.014 226.782V225H406.574V234H408.104ZM416.941 226.26V231.3C416.941 232.974 417.445 234.162 419.389 234.162C419.965 234.162 420.325 234.108 420.721 234V232.596C420.415 232.668 420.181 232.722 419.785 232.722C418.867 232.722 418.471 232.272 418.471 231.246V226.26H420.721V225H418.471V221.994L416.941 222.642V225H415.267V226.26H416.941ZM429.8 234.216C431.276 234.216 432.41 233.514 432.824 232.362C432.842 232.938 432.896 233.532 432.968 234H434.57C434.354 233.298 434.264 232.344 434.264 230.958V228.528C434.264 225.9 433.184 224.784 430.718 224.784C428.612 224.784 427.172 225.99 427.046 227.826H428.684C428.756 226.692 429.512 226.044 430.736 226.044C432.122 226.044 432.716 226.71 432.716 228.366V228.51L431.042 228.708C429.566 228.888 428.702 229.104 428.018 229.446C427.208 229.896 426.758 230.67 426.758 231.57C426.758 233.172 427.964 234.216 429.8 234.216ZM430.142 232.956C429.044 232.956 428.378 232.416 428.378 231.534C428.378 230.652 428.954 230.184 430.286 229.986L432.734 229.626V230.076C432.734 231.822 431.708 232.956 430.142 232.956ZM438.443 234V229.302C438.443 227.304 439.361 226.098 440.855 226.098C442.169 226.098 442.835 226.908 442.835 228.492V234H444.365V228.402C444.365 226.008 443.339 224.784 441.359 224.784C439.937 224.784 438.947 225.432 438.353 226.782V225H436.913V234H438.443ZM449.904 234.216C451.308 234.216 452.28 233.532 452.82 232.326V234H454.26V220.95H452.73V226.332C452.154 225.27 451.272 224.784 450.084 224.784C447.834 224.784 446.25 226.728 446.25 229.5C446.25 232.326 447.726 234.216 449.904 234.216ZM450.318 232.866C448.788 232.866 447.87 231.606 447.87 229.5C447.87 227.376 448.788 226.134 450.318 226.134C451.83 226.134 452.766 227.34 452.766 229.302V229.716C452.766 231.642 451.812 232.866 450.318 232.866ZM292.866 250.26V255.3C292.866 256.974 293.37 258.162 295.314 258.162C295.89 258.162 296.25 258.108 296.646 258V256.596C296.34 256.668 296.106 256.722 295.71 256.722C294.792 256.722 294.396 256.272 294.396 255.246V250.26H296.646V249H294.396V245.994L292.866 246.642V249H291.192V250.26H292.866ZM299.969 249H298.547V258H300.077V254.148C300.077 253.068 300.113 251.862 300.977 250.998C301.409 250.566 302.021 250.296 302.957 250.296H303.029V248.802C302.921 248.784 302.813 248.784 302.705 248.784C301.337 248.784 300.401 249.792 299.969 251.052V249ZM307.026 258.216C308.502 258.216 309.636 257.514 310.05 256.362C310.068 256.938 310.122 257.532 310.194 258H311.796C311.58 257.298 311.49 256.344 311.49 254.958V252.528C311.49 249.9 310.41 248.784 307.944 248.784C305.838 248.784 304.398 249.99 304.272 251.826H305.91C305.982 250.692 306.738 250.044 307.962 250.044C309.348 250.044 309.942 250.71 309.942 252.366V252.51L308.268 252.708C306.792 252.888 305.928 253.104 305.244 253.446C304.434 253.896 303.984 254.67 303.984 255.57C303.984 257.172 305.19 258.216 307.026 258.216ZM307.368 256.956C306.27 256.956 305.604 256.416 305.604 255.534C305.604 254.652 306.18 254.184 307.512 253.986L309.96 253.626V254.076C309.96 255.822 308.934 256.956 307.368 256.956ZM315.669 258V253.302C315.669 251.304 316.587 250.098 318.081 250.098C319.395 250.098 320.061 250.908 320.061 252.492V258H321.591V252.402C321.591 250.008 320.565 248.784 318.585 248.784C317.163 248.784 316.173 249.432 315.579 250.782V249H314.139V258H315.669ZM327.256 258.216C329.452 258.216 330.694 257.082 330.694 255.462C330.694 254.148 329.974 253.32 328.354 253.014L326.608 252.69C325.726 252.528 325.222 252.168 325.222 251.412C325.222 250.53 325.924 250.026 327.076 250.026C328.3 250.026 329.002 250.656 329.2 251.556L330.712 251.214C330.532 249.702 329.164 248.784 327.148 248.784C325.024 248.784 323.728 249.936 323.728 251.484C323.728 252.852 324.592 253.716 326.122 254.004L327.886 254.328C328.696 254.472 329.182 254.796 329.182 255.588C329.182 256.362 328.516 256.956 327.31 256.956C325.996 256.956 325.15 256.308 324.934 255.174L323.386 255.444C323.692 257.226 325.132 258.216 327.256 258.216ZM334.319 261.51V256.578C334.715 257.46 335.687 258.216 337.073 258.216C339.251 258.216 340.799 256.38 340.799 253.5C340.799 250.656 339.341 248.784 337.163 248.784C335.849 248.784 334.805 249.432 334.229 250.674V249H332.789V261.51H334.319ZM336.713 256.866C335.219 256.866 334.283 255.642 334.283 253.698V253.266C334.283 251.322 335.255 250.134 336.767 250.134C338.279 250.134 339.179 251.376 339.179 253.5C339.179 255.606 338.243 256.866 336.713 256.866ZM345.364 258.216C346.84 258.216 347.974 257.514 348.388 256.362C348.406 256.938 348.46 257.532 348.532 258H350.134C349.918 257.298 349.828 256.344 349.828 254.958V252.528C349.828 249.9 348.748 248.784 346.282 248.784C344.176 248.784 342.736 249.99 342.61 251.826H344.248C344.32 250.692 345.076 250.044 346.3 250.044C347.686 250.044 348.28 250.71 348.28 252.366V252.51L346.606 252.708C345.13 252.888 344.266 253.104 343.582 253.446C342.772 253.896 342.322 254.67 342.322 255.57C342.322 257.172 343.528 258.216 345.364 258.216ZM345.706 256.956C344.608 256.956 343.942 256.416 343.942 255.534C343.942 254.652 344.518 254.184 345.85 253.986L348.298 253.626V254.076C348.298 255.822 347.272 256.956 345.706 256.956ZM353.899 249H352.477V258H354.007V254.148C354.007 253.068 354.043 251.862 354.907 250.998C355.339 250.566 355.951 250.296 356.887 250.296H356.959V248.802C356.851 248.784 356.743 248.784 356.635 248.784C355.267 248.784 354.331 249.792 353.899 251.052V249ZM365.851 252.87C365.851 250.17 364.447 248.784 362.017 248.784C359.443 248.784 357.931 250.602 357.931 253.608C357.931 256.578 359.461 258.216 362.035 258.216C363.853 258.216 365.167 257.352 365.797 255.714L364.537 255.156C364.141 256.254 363.295 256.866 362.143 256.866C360.541 256.866 359.479 255.714 359.461 253.95H365.851V252.87ZM359.461 252.708C359.497 251.016 360.397 249.99 361.981 249.99C363.457 249.99 364.303 250.854 364.303 252.51V252.708H359.461ZM369.546 258V253.302C369.546 251.304 370.464 250.098 371.958 250.098C373.272 250.098 373.938 250.908 373.938 252.492V258H375.468V252.402C375.468 250.008 374.442 248.784 372.462 248.784C371.04 248.784 370.05 249.432 369.456 250.782V249H368.016V258H369.546ZM378.383 250.26V255.3C378.383 256.974 378.887 258.162 380.831 258.162C381.407 258.162 381.767 258.108 382.163 258V256.596C381.857 256.668 381.623 256.722 381.227 256.722C380.309 256.722 379.913 256.272 379.913 255.246V250.26H382.163V249H379.913V245.994L378.383 246.642V249H376.709V250.26H378.383ZM391.945 258L393.655 251.52C393.727 251.232 393.817 250.782 393.853 250.512H393.889C393.925 250.782 394.015 251.232 394.087 251.52L395.797 258H397.471L400.009 249H398.425L396.805 255.426C396.733 255.75 396.661 256.128 396.607 256.488H396.571C396.517 256.128 396.409 255.75 396.337 255.426L394.699 249H393.043L391.405 255.426C391.333 255.75 391.225 256.128 391.171 256.488H391.135C391.081 256.128 391.009 255.75 390.937 255.426L389.317 249H387.733L390.271 258H391.945ZM403.334 247.326V245.4H401.588V247.326H403.334ZM403.226 258V249H401.696V258H403.226ZM406.86 250.26V255.3C406.86 256.974 407.364 258.162 409.308 258.162C409.884 258.162 410.244 258.108 410.64 258V256.596C410.334 256.668 410.1 256.722 409.704 256.722C408.786 256.722 408.39 256.272 408.39 255.246V250.26H410.64V249H408.39V245.994L406.86 246.642V249H405.186V250.26H406.86ZM414.071 258V253.302C414.071 251.268 414.953 250.098 416.501 250.098C417.797 250.098 418.463 250.926 418.463 252.51V258H419.993V252.402C419.993 250.026 418.967 248.784 417.023 248.784C415.619 248.784 414.611 249.432 414.071 250.692V244.95H412.541V258H414.071ZM428.714 261.51V256.578C429.11 257.46 430.082 258.216 431.468 258.216C433.646 258.216 435.194 256.38 435.194 253.5C435.194 250.656 433.736 248.784 431.558 248.784C430.244 248.784 429.2 249.432 428.624 250.674V249H427.184V261.51H428.714ZM431.108 256.866C429.614 256.866 428.678 255.642 428.678 253.698V253.266C428.678 251.322 429.65 250.134 431.162 250.134C432.674 250.134 433.574 251.376 433.574 253.5C433.574 255.606 432.638 256.866 431.108 256.866ZM438.678 249H437.256V258H438.786V254.148C438.786 253.068 438.822 251.862 439.686 250.998C440.118 250.566 440.73 250.296 441.666 250.296H441.738V248.802C441.63 248.784 441.522 248.784 441.414 248.784C440.046 248.784 439.11 249.792 438.678 251.052V249ZM444.976 247.326V245.4H443.23V247.326H444.976ZM444.868 258V249H443.338V258H444.868ZM451.175 258.216C453.191 258.216 454.541 257.028 454.865 254.976L453.407 254.742C453.173 256.146 452.417 256.884 451.193 256.884C449.591 256.884 448.655 255.642 448.655 253.482C448.655 251.376 449.591 250.116 451.139 250.116C452.363 250.116 453.155 250.872 453.317 252.24L454.883 252.06C454.649 249.99 453.281 248.784 451.175 248.784C448.619 248.784 447.035 250.566 447.035 253.5C447.035 256.38 448.655 258.216 451.175 258.216ZM458.599 247.326V245.4H456.853V247.326H458.599ZM458.491 258V249H456.961V258H458.491ZM462.728 258V253.302C462.728 251.304 463.646 250.098 465.14 250.098C466.454 250.098 467.12 250.908 467.12 252.492V258H468.65V252.402C468.65 250.008 467.624 248.784 465.644 248.784C464.222 248.784 463.232 249.432 462.638 250.782V249H461.198V258H462.728ZM478.256 248.856C478.508 248.856 478.724 248.892 478.904 248.928V247.596C478.706 247.542 478.508 247.524 478.31 247.524C477.104 247.524 476.438 248.244 476.168 249.162C475.664 248.928 475.088 248.784 474.404 248.784C472.316 248.784 471.074 250.08 471.074 251.826C471.074 252.708 471.38 253.464 471.956 254.022C471.2 254.31 470.678 254.922 470.678 255.822C470.678 256.47 470.966 257.046 471.722 257.388C470.768 257.694 470.264 258.414 470.264 259.26C470.264 260.538 471.146 261.726 474.314 261.726C477.446 261.726 478.778 260.556 478.778 258.864C478.778 257.244 477.752 256.326 475.718 256.326H473.522C472.406 256.326 472.028 255.912 472.028 255.408C472.028 254.994 472.298 254.688 472.676 254.526C473.162 254.76 473.738 254.904 474.404 254.904C476.492 254.904 477.734 253.572 477.734 251.826C477.734 250.98 477.446 250.242 476.906 249.702C477.122 249.126 477.572 248.856 478.256 248.856ZM474.404 253.734C473.252 253.734 472.514 252.924 472.514 251.826C472.514 250.728 473.252 249.954 474.404 249.954C475.556 249.954 476.294 250.746 476.294 251.844C476.294 252.942 475.556 253.734 474.404 253.734ZM475.376 257.676C476.618 257.676 477.248 258.126 477.248 258.972C477.248 259.782 476.69 260.466 474.494 260.466C472.874 260.466 471.758 260.106 471.758 258.99C471.758 258.45 472.064 257.928 472.712 257.64C472.946 257.658 473.198 257.676 473.468 257.676H475.376Z" fill="#017AFF"/>
<circle cx="159" cy="103" r="103" fill="#48C5B5"/>
<path d="M106.54 86.22H98.6198V99H100.33V93.168H106.234V91.728H100.33V87.66H106.54V86.22ZM108.424 85.95V99H109.954V85.95H108.424ZM120.041 93.87C120.041 91.17 118.637 89.784 116.207 89.784C113.633 89.784 112.121 91.602 112.121 94.608C112.121 97.578 113.651 99.216 116.225 99.216C118.043 99.216 119.357 98.352 119.987 96.714L118.727 96.156C118.331 97.254 117.485 97.866 116.333 97.866C114.731 97.866 113.669 96.714 113.651 94.95H120.041V93.87ZM113.651 93.708C113.687 92.016 114.587 90.99 116.171 90.99C117.647 90.99 118.493 91.854 118.493 93.51V93.708H113.651ZM122.554 99L124.39 96.228C124.714 95.742 124.876 95.436 124.912 95.31H124.93C124.966 95.454 125.146 95.796 125.434 96.228L127.288 99H129.106L125.902 94.464L128.872 90H127L125.452 92.538C125.182 92.988 125.02 93.294 124.948 93.474H124.93C124.876 93.312 124.714 93.024 124.408 92.538L122.77 90H120.97L123.994 94.356L120.736 99H122.554ZM132.263 88.326V86.4H130.517V88.326H132.263ZM132.155 99V90H130.625V99H132.155ZM139.164 99.216C141.414 99.216 142.872 97.308 142.872 94.5C142.872 91.746 141.45 89.784 139.254 89.784C137.85 89.784 136.86 90.558 136.392 91.566V85.95H134.862V99H136.032L136.302 97.452C136.77 98.496 137.796 99.216 139.164 99.216ZM138.75 97.866C137.238 97.866 136.356 96.642 136.356 94.77V94.302C136.356 92.34 137.256 91.134 138.768 91.134C140.37 91.134 141.252 92.484 141.252 94.5C141.252 96.552 140.316 97.866 138.75 97.866ZM144.934 85.95V99H146.464V85.95H144.934ZM156.55 93.87C156.55 91.17 155.146 89.784 152.716 89.784C150.142 89.784 148.63 91.602 148.63 94.608C148.63 97.578 150.16 99.216 152.734 99.216C154.552 99.216 155.866 98.352 156.496 96.714L155.236 96.156C154.84 97.254 153.994 97.866 152.842 97.866C151.24 97.866 150.178 96.714 150.16 94.95H156.55V93.87ZM150.16 93.708C150.196 92.016 151.096 90.99 152.68 90.99C154.156 90.99 155.002 91.854 155.002 93.51V93.708H150.16ZM165.587 90V88.794C165.587 87.696 165.965 87.192 166.883 87.192C167.171 87.192 167.513 87.228 167.837 87.282V85.968C167.495 85.878 167.117 85.842 166.685 85.842C165.083 85.842 164.057 86.94 164.057 88.578V90H162.401V91.26H164.057V99H165.587V91.26H167.837V90H165.587ZM171.181 88.326V86.4H169.435V88.326H171.181ZM171.073 99V90H169.543V99H171.073ZM175.31 99V94.302C175.31 92.304 176.228 91.098 177.722 91.098C179.036 91.098 179.702 91.908 179.702 93.492V99H181.232V93.402C181.232 91.008 180.206 89.784 178.226 89.784C176.804 89.784 175.814 90.432 175.22 91.782V90H173.78V99H175.31ZM186.248 99.216C187.724 99.216 188.858 98.514 189.272 97.362C189.29 97.938 189.344 98.532 189.416 99H191.018C190.802 98.298 190.712 97.344 190.712 95.958V93.528C190.712 90.9 189.632 89.784 187.166 89.784C185.06 89.784 183.62 90.99 183.494 92.826H185.132C185.204 91.692 185.96 91.044 187.184 91.044C188.57 91.044 189.164 91.71 189.164 93.366V93.51L187.49 93.708C186.014 93.888 185.15 94.104 184.466 94.446C183.656 94.896 183.206 95.67 183.206 96.57C183.206 98.172 184.412 99.216 186.248 99.216ZM186.59 97.956C185.492 97.956 184.826 97.416 184.826 96.534C184.826 95.652 185.402 95.184 186.734 94.986L189.182 94.626V95.076C189.182 96.822 188.156 97.956 186.59 97.956ZM194.892 99V94.302C194.892 92.304 195.81 91.098 197.304 91.098C198.618 91.098 199.284 91.908 199.284 93.492V99H200.814V93.402C200.814 91.008 199.788 89.784 197.808 89.784C196.386 89.784 195.396 90.432 194.802 91.782V90H193.362V99H194.892ZM206.929 99.216C208.945 99.216 210.295 98.028 210.619 95.976L209.161 95.742C208.927 97.146 208.171 97.884 206.947 97.884C205.345 97.884 204.409 96.642 204.409 94.482C204.409 92.376 205.345 91.116 206.893 91.116C208.117 91.116 208.909 91.872 209.071 93.24L210.637 93.06C210.403 90.99 209.035 89.784 206.929 89.784C204.373 89.784 202.789 91.566 202.789 94.5C202.789 97.38 204.409 99.216 206.929 99.216ZM220.095 93.87C220.095 91.17 218.691 89.784 216.261 89.784C213.687 89.784 212.175 91.602 212.175 94.608C212.175 97.578 213.705 99.216 216.279 99.216C218.097 99.216 219.411 98.352 220.041 96.714L218.781 96.156C218.385 97.254 217.539 97.866 216.387 97.866C214.785 97.866 213.723 96.714 213.705 94.95H220.095V93.87ZM213.705 93.708C213.741 92.016 214.641 90.99 216.225 90.99C217.701 90.99 218.547 91.854 218.547 93.51V93.708H213.705ZM97.3653 123.216C99.9033 123.216 101.559 121.434 101.559 118.5C101.559 115.566 99.9033 113.784 97.3653 113.784C94.8273 113.784 93.1713 115.566 93.1713 118.5C93.1713 121.434 94.8273 123.216 97.3653 123.216ZM97.3653 121.884C95.7453 121.884 94.7913 120.732 94.7913 118.5C94.7913 116.268 95.7453 115.116 97.3653 115.116C98.9853 115.116 99.9393 116.268 99.9393 118.5C99.9393 120.732 98.9853 121.884 97.3653 121.884ZM105.243 126.51V121.578C105.639 122.46 106.611 123.216 107.997 123.216C110.175 123.216 111.723 121.38 111.723 118.5C111.723 115.656 110.265 113.784 108.087 113.784C106.773 113.784 105.729 114.432 105.153 115.674V114H103.713V126.51H105.243ZM107.637 121.866C106.143 121.866 105.207 120.642 105.207 118.698V118.266C105.207 116.322 106.179 115.134 107.691 115.134C109.203 115.134 110.103 116.376 110.103 118.5C110.103 120.606 109.167 121.866 107.637 121.866ZM114.362 115.26V120.3C114.362 121.974 114.866 123.162 116.81 123.162C117.386 123.162 117.746 123.108 118.142 123V121.596C117.836 121.668 117.602 121.722 117.206 121.722C116.288 121.722 115.892 121.272 115.892 120.246V115.26H118.142V114H115.892V110.994L114.362 111.642V114H112.688V115.26H114.362ZM121.681 112.326V110.4H119.935V112.326H121.681ZM121.573 123V114H120.043V123H121.573ZM127.934 123.216C130.472 123.216 132.128 121.434 132.128 118.5C132.128 115.566 130.472 113.784 127.934 113.784C125.396 113.784 123.74 115.566 123.74 118.5C123.74 121.434 125.396 123.216 127.934 123.216ZM127.934 121.884C126.314 121.884 125.36 120.732 125.36 118.5C125.36 116.268 126.314 115.116 127.934 115.116C129.554 115.116 130.508 116.268 130.508 118.5C130.508 120.732 129.554 121.884 127.934 121.884ZM135.812 123V118.302C135.812 116.304 136.73 115.098 138.224 115.098C139.538 115.098 140.204 115.908 140.204 117.492V123H141.734V117.402C141.734 115.008 140.708 113.784 138.728 113.784C137.306 113.784 136.316 114.432 135.722 115.782V114H134.282V123H135.812ZM147.398 123.216C149.594 123.216 150.836 122.082 150.836 120.462C150.836 119.148 150.116 118.32 148.496 118.014L146.75 117.69C145.868 117.528 145.364 117.168 145.364 116.412C145.364 115.53 146.066 115.026 147.218 115.026C148.442 115.026 149.144 115.656 149.342 116.556L150.854 116.214C150.674 114.702 149.306 113.784 147.29 113.784C145.166 113.784 143.87 114.936 143.87 116.484C143.87 117.852 144.734 118.716 146.264 119.004L148.028 119.328C148.838 119.472 149.324 119.796 149.324 120.588C149.324 121.362 148.658 121.956 147.452 121.956C146.138 121.956 145.292 121.308 145.076 120.174L143.528 120.444C143.834 122.226 145.274 123.216 147.398 123.216ZM160.11 123.216C161.586 123.216 162.72 122.514 163.134 121.362C163.152 121.938 163.206 122.532 163.278 123H164.88C164.664 122.298 164.574 121.344 164.574 119.958V117.528C164.574 114.9 163.494 113.784 161.028 113.784C158.922 113.784 157.482 114.99 157.356 116.826H158.994C159.066 115.692 159.822 115.044 161.046 115.044C162.432 115.044 163.026 115.71 163.026 117.366V117.51L161.352 117.708C159.876 117.888 159.012 118.104 158.328 118.446C157.518 118.896 157.068 119.67 157.068 120.57C157.068 122.172 158.274 123.216 160.11 123.216ZM160.452 121.956C159.354 121.956 158.688 121.416 158.688 120.534C158.688 119.652 159.264 119.184 160.596 118.986L163.044 118.626V119.076C163.044 120.822 162.018 121.956 160.452 121.956ZM170.841 123L174.099 114H172.443L170.427 120.066C170.265 120.552 170.139 121.02 170.049 121.434H169.995C169.905 121.02 169.779 120.552 169.617 120.066L167.601 114H165.945L169.203 123H170.841ZM177.934 123.216C179.41 123.216 180.544 122.514 180.958 121.362C180.976 121.938 181.03 122.532 181.102 123H182.704C182.488 122.298 182.398 121.344 182.398 119.958V117.528C182.398 114.9 181.318 113.784 178.852 113.784C176.746 113.784 175.306 114.99 175.18 116.826H176.818C176.89 115.692 177.646 115.044 178.87 115.044C180.256 115.044 180.85 115.71 180.85 117.366V117.51L179.176 117.708C177.7 117.888 176.836 118.104 176.152 118.446C175.342 118.896 174.892 119.67 174.892 120.57C174.892 122.172 176.098 123.216 177.934 123.216ZM178.276 121.956C177.178 121.956 176.512 121.416 176.512 120.534C176.512 119.652 177.088 119.184 178.42 118.986L180.868 118.626V119.076C180.868 120.822 179.842 121.956 178.276 121.956ZM186.685 112.326V110.4H184.939V112.326H186.685ZM186.577 123V114H185.047V123H186.577ZM189.284 109.95V123H190.814V109.95H189.284ZM196.022 123.216C197.498 123.216 198.632 122.514 199.046 121.362C199.064 121.938 199.118 122.532 199.19 123H200.792C200.576 122.298 200.486 121.344 200.486 119.958V117.528C200.486 114.9 199.406 113.784 196.94 113.784C194.834 113.784 193.394 114.99 193.268 116.826H194.906C194.978 115.692 195.734 115.044 196.958 115.044C198.344 115.044 198.938 115.71 198.938 117.366V117.51L197.264 117.708C195.788 117.888 194.924 118.104 194.24 118.446C193.43 118.896 192.98 119.67 192.98 120.57C192.98 122.172 194.186 123.216 196.022 123.216ZM196.364 121.956C195.266 121.956 194.6 121.416 194.6 120.534C194.6 119.652 195.176 119.184 196.508 118.986L198.956 118.626V119.076C198.956 120.822 197.93 121.956 196.364 121.956ZM207.437 123.216C209.687 123.216 211.145 121.308 211.145 118.5C211.145 115.746 209.723 113.784 207.527 113.784C206.123 113.784 205.133 114.558 204.665 115.566V109.95H203.135V123H204.305L204.575 121.452C205.043 122.496 206.069 123.216 207.437 123.216ZM207.023 121.866C205.511 121.866 204.629 120.642 204.629 118.77V118.302C204.629 116.34 205.529 115.134 207.041 115.134C208.643 115.134 209.525 116.484 209.525 118.5C209.525 120.552 208.589 121.866 207.023 121.866ZM213.207 109.95V123H214.737V109.95H213.207ZM224.824 117.87C224.824 115.17 223.42 113.784 220.99 113.784C218.416 113.784 216.904 115.602 216.904 118.608C216.904 121.578 218.434 123.216 221.008 123.216C222.826 123.216 224.14 122.352 224.77 120.714L223.51 120.156C223.114 121.254 222.268 121.866 221.116 121.866C219.514 121.866 218.452 120.714 218.434 118.95H224.824V117.87ZM218.434 117.708C218.47 116.016 219.37 114.99 220.954 114.99C222.43 114.99 223.276 115.854 223.276 117.51V117.708H218.434Z" fill="white"/>
<circle cx="132" cy="324" r="94" fill="#FC7B33"/>
<path d="M81.4898 320L76.6478 307.22H74.9558L70.1138 320H71.8778L73.1918 316.31H78.4118L79.7258 320H81.4898ZM75.4778 309.884C75.5858 309.596 75.6758 309.29 75.7838 308.912H75.8198C75.9278 309.29 76.0178 309.596 76.1258 309.884L77.9078 314.87H73.6958L75.4778 309.884ZM83.1117 306.95V320H84.6417V306.95H83.1117ZM87.348 306.95V320H88.878V306.95H87.348ZM96.2602 320H97.7902V314.744C97.7902 313.106 98.5642 312.098 99.8242 312.098C100.904 312.098 101.516 312.836 101.516 314.15V320H103.046V314.672C103.046 313.034 103.784 312.098 105.062 312.098C106.196 312.098 106.772 312.818 106.772 314.222V320H108.302V314.096C108.302 312.008 107.294 310.784 105.566 310.784C104.342 310.784 103.424 311.378 102.83 312.584C102.416 311.414 101.516 310.784 100.274 310.784C99.0682 310.784 98.2042 311.378 97.7002 312.566V311H96.2602V320ZM113.317 320.216C114.793 320.216 115.927 319.514 116.341 318.362C116.359 318.938 116.413 319.532 116.485 320H118.087C117.871 319.298 117.781 318.344 117.781 316.958V314.528C117.781 311.9 116.701 310.784 114.235 310.784C112.129 310.784 110.689 311.99 110.563 313.826H112.201C112.273 312.692 113.029 312.044 114.253 312.044C115.639 312.044 116.233 312.71 116.233 314.366V314.51L114.559 314.708C113.083 314.888 112.219 315.104 111.535 315.446C110.725 315.896 110.275 316.67 110.275 317.57C110.275 319.172 111.481 320.216 113.317 320.216ZM113.659 318.956C112.561 318.956 111.895 318.416 111.895 317.534C111.895 316.652 112.471 316.184 113.803 315.986L116.251 315.626V316.076C116.251 317.822 115.225 318.956 113.659 318.956ZM122.212 309.326V307.4H120.466V309.326H122.212ZM119.818 323.636C121.618 323.636 122.104 322.34 122.104 320.9V311H120.574V320.738C120.574 321.962 120.268 322.25 119.602 322.25C119.44 322.25 119.242 322.25 118.72 322.214V323.528C118.99 323.6 119.494 323.636 119.818 323.636ZM128.461 320.216C130.999 320.216 132.655 318.434 132.655 315.5C132.655 312.566 130.999 310.784 128.461 310.784C125.923 310.784 124.267 312.566 124.267 315.5C124.267 318.434 125.923 320.216 128.461 320.216ZM128.461 318.884C126.841 318.884 125.887 317.732 125.887 315.5C125.887 313.268 126.841 312.116 128.461 312.116C130.081 312.116 131.035 313.268 131.035 315.5C131.035 317.732 130.081 318.884 128.461 318.884ZM136.231 311H134.809V320H136.339V316.148C136.339 315.068 136.375 313.862 137.239 312.998C137.671 312.566 138.283 312.296 139.219 312.296H139.291V310.802C139.183 310.784 139.075 310.784 138.967 310.784C137.599 310.784 136.663 311.792 136.231 313.052V311ZM147.097 320V315.302C147.097 313.268 147.979 312.098 149.527 312.098C150.823 312.098 151.489 312.926 151.489 314.51V320H153.019V314.402C153.019 312.026 151.993 310.784 150.049 310.784C148.645 310.784 147.637 311.432 147.097 312.692V306.95H145.567V320H147.097ZM162.914 314.87C162.914 312.17 161.51 310.784 159.08 310.784C156.506 310.784 154.994 312.602 154.994 315.608C154.994 318.578 156.524 320.216 159.098 320.216C160.916 320.216 162.23 319.352 162.86 317.714L161.6 317.156C161.204 318.254 160.358 318.866 159.206 318.866C157.604 318.866 156.542 317.714 156.524 315.95H162.914V314.87ZM156.524 314.708C156.56 313.016 157.46 311.99 159.044 311.99C160.52 311.99 161.366 312.854 161.366 314.51V314.708H156.524ZM167.581 320.216C169.057 320.216 170.191 319.514 170.605 318.362C170.623 318.938 170.677 319.532 170.749 320H172.351C172.135 319.298 172.045 318.344 172.045 316.958V314.528C172.045 311.9 170.965 310.784 168.499 310.784C166.393 310.784 164.953 311.99 164.827 313.826H166.465C166.537 312.692 167.293 312.044 168.517 312.044C169.903 312.044 170.497 312.71 170.497 314.366V314.51L168.823 314.708C167.347 314.888 166.483 315.104 165.799 315.446C164.989 315.896 164.539 316.67 164.539 317.57C164.539 319.172 165.745 320.216 167.581 320.216ZM167.923 318.956C166.825 318.956 166.159 318.416 166.159 317.534C166.159 316.652 166.735 316.184 168.067 315.986L170.515 315.626V316.076C170.515 317.822 169.489 318.956 167.923 318.956ZM174.694 306.95V320H176.224V306.95H174.694ZM179.858 312.26V317.3C179.858 318.974 180.362 320.162 182.306 320.162C182.882 320.162 183.242 320.108 183.638 320V318.596C183.332 318.668 183.098 318.722 182.702 318.722C181.784 318.722 181.388 318.272 181.388 317.246V312.26H183.638V311H181.388V307.994L179.858 308.642V311H178.184V312.26H179.858ZM187.069 320V315.302C187.069 313.268 187.951 312.098 189.499 312.098C190.795 312.098 191.461 312.926 191.461 314.51V320H192.991V314.402C192.991 312.026 191.965 310.784 190.021 310.784C188.617 310.784 187.609 311.432 187.069 312.692V306.95H185.539V320H187.069ZM74.005 335V333.794C74.005 332.696 74.383 332.192 75.301 332.192C75.589 332.192 75.931 332.228 76.255 332.282V330.968C75.913 330.878 75.535 330.842 75.103 330.842C73.501 330.842 72.475 331.94 72.475 333.578V335H70.819V336.26H72.475V344H74.005V336.26H76.255V335H74.005ZM80.8593 344.216C82.1193 344.216 83.2353 343.406 83.6493 342.308V344H85.0893V335H83.5593V339.842C83.5593 341.678 82.5873 342.902 81.1473 342.902C79.9593 342.902 79.3113 342.074 79.3113 340.562V335H77.7813V340.742C77.7813 342.848 78.5913 344.216 80.8593 344.216ZM89.3175 344V339.302C89.3175 337.304 90.2355 336.098 91.7295 336.098C93.0435 336.098 93.7095 336.908 93.7095 338.492V344H95.2395V338.402C95.2395 336.008 94.2135 334.784 92.2335 334.784C90.8115 334.784 89.8215 335.432 89.2275 336.782V335H87.7875V344H89.3175ZM100.778 344.216C102.182 344.216 103.154 343.532 103.694 342.326V344H105.134V330.95H103.604V336.332C103.028 335.27 102.146 334.784 100.958 334.784C98.7083 334.784 97.1243 336.728 97.1243 339.5C97.1243 342.326 98.6003 344.216 100.778 344.216ZM101.192 342.866C99.6623 342.866 98.7443 341.606 98.7443 339.5C98.7443 337.376 99.6623 336.134 101.192 336.134C102.704 336.134 103.64 337.34 103.64 339.302V339.716C103.64 341.642 102.686 342.866 101.192 342.866ZM110.977 344.216C113.173 344.216 114.415 343.082 114.415 341.462C114.415 340.148 113.695 339.32 112.075 339.014L110.329 338.69C109.447 338.528 108.943 338.168 108.943 337.412C108.943 336.53 109.645 336.026 110.797 336.026C112.021 336.026 112.723 336.656 112.921 337.556L114.433 337.214C114.253 335.702 112.885 334.784 110.869 334.784C108.745 334.784 107.449 335.936 107.449 337.484C107.449 338.852 108.313 339.716 109.843 340.004L111.607 340.328C112.417 340.472 112.903 340.796 112.903 341.588C112.903 342.362 112.237 342.956 111.031 342.956C109.717 342.956 108.871 342.308 108.655 341.174L107.107 341.444C107.413 343.226 108.853 344.216 110.977 344.216ZM123.688 344.216C125.164 344.216 126.298 343.514 126.712 342.362C126.73 342.938 126.784 343.532 126.856 344H128.458C128.242 343.298 128.152 342.344 128.152 340.958V338.528C128.152 335.9 127.072 334.784 124.606 334.784C122.5 334.784 121.06 335.99 120.934 337.826H122.572C122.644 336.692 123.4 336.044 124.624 336.044C126.01 336.044 126.604 336.71 126.604 338.366V338.51L124.93 338.708C123.454 338.888 122.59 339.104 121.906 339.446C121.096 339.896 120.646 340.67 120.646 341.57C120.646 343.172 121.852 344.216 123.688 344.216ZM124.03 342.956C122.932 342.956 122.266 342.416 122.266 341.534C122.266 340.652 122.842 340.184 124.174 339.986L126.622 339.626V340.076C126.622 341.822 125.596 342.956 124.03 342.956ZM134.313 344.216C136.329 344.216 137.679 343.028 138.003 340.976L136.545 340.742C136.311 342.146 135.555 342.884 134.331 342.884C132.729 342.884 131.793 341.642 131.793 339.482C131.793 337.376 132.729 336.116 134.277 336.116C135.501 336.116 136.293 336.872 136.455 338.24L138.021 338.06C137.787 335.99 136.419 334.784 134.313 334.784C131.757 334.784 130.173 336.566 130.173 339.5C130.173 342.38 131.793 344.216 134.313 344.216ZM143.7 344.216C145.716 344.216 147.066 343.028 147.39 340.976L145.932 340.742C145.698 342.146 144.942 342.884 143.718 342.884C142.116 342.884 141.18 341.642 141.18 339.482C141.18 337.376 142.116 336.116 143.664 336.116C144.888 336.116 145.68 336.872 145.842 338.24L147.408 338.06C147.174 335.99 145.806 334.784 143.7 334.784C141.144 334.784 139.56 336.566 139.56 339.5C139.56 342.38 141.18 344.216 143.7 344.216ZM156.867 338.87C156.867 336.17 155.463 334.784 153.033 334.784C150.459 334.784 148.947 336.602 148.947 339.608C148.947 342.578 150.477 344.216 153.051 344.216C154.869 344.216 156.183 343.352 156.813 341.714L155.553 341.156C155.157 342.254 154.311 342.866 153.159 342.866C151.557 342.866 150.495 341.714 150.477 339.95H156.867V338.87ZM150.477 338.708C150.513 337.016 151.413 335.99 152.997 335.99C154.473 335.99 155.319 336.854 155.319 338.51V338.708H150.477ZM160.562 347.51V342.578C160.958 343.46 161.93 344.216 163.316 344.216C165.494 344.216 167.042 342.38 167.042 339.5C167.042 336.656 165.584 334.784 163.406 334.784C162.092 334.784 161.048 335.432 160.472 336.674V335H159.032V347.51H160.562ZM162.956 342.866C161.462 342.866 160.526 341.642 160.526 339.698V339.266C160.526 337.322 161.498 336.134 163.01 336.134C164.522 336.134 165.422 337.376 165.422 339.5C165.422 341.606 164.486 342.866 162.956 342.866ZM169.68 336.26V341.3C169.68 342.974 170.184 344.162 172.128 344.162C172.704 344.162 173.064 344.108 173.46 344V342.596C173.154 342.668 172.92 342.722 172.524 342.722C171.606 342.722 171.21 342.272 171.21 341.246V336.26H173.46V335H171.21V331.994L169.68 332.642V335H168.006V336.26H169.68ZM182.654 338.87C182.654 336.17 181.25 334.784 178.82 334.784C176.246 334.784 174.734 336.602 174.734 339.608C174.734 342.578 176.264 344.216 178.838 344.216C180.656 344.216 181.97 343.352 182.6 341.714L181.34 341.156C180.944 342.254 180.098 342.866 178.946 342.866C177.344 342.866 176.282 341.714 176.264 339.95H182.654V338.87ZM176.264 338.708C176.3 337.016 177.2 335.99 178.784 335.99C180.26 335.99 181.106 336.854 181.106 338.51V338.708H176.264ZM187.843 344.216C189.247 344.216 190.219 343.532 190.759 342.326V344H192.199V330.95H190.669V336.332C190.093 335.27 189.211 334.784 188.023 334.784C185.773 334.784 184.189 336.728 184.189 339.5C184.189 342.326 185.665 344.216 187.843 344.216ZM188.257 342.866C186.727 342.866 185.809 341.606 185.809 339.5C185.809 337.376 186.727 336.134 188.257 336.134C189.769 336.134 190.705 337.34 190.705 339.302V339.716C190.705 341.642 189.751 342.866 188.257 342.866Z" fill="white"/>
<mask id="path-9-inside-1" fill="white">
<path d="M341 51.6667C341 53.4614 340.638 55.2386 339.934 56.8967C339.231 58.5548 338.2 60.0614 336.899 61.3305C335.599 62.5995 334.056 63.6062 332.358 64.293C330.659 64.9798 328.839 65.3333 327 65.3333C325.161 65.3333 323.341 64.9798 321.642 64.293C319.944 63.6062 318.401 62.5995 317.101 61.3305C315.8 60.0614 314.769 58.5548 314.066 56.8967C313.362 55.2386 313 53.4614 313 51.6667L327 51.6667H341Z"/>
</mask>
<path d="M341 51.6667C341 53.4614 340.638 55.2386 339.934 56.8967C339.231 58.5548 338.2 60.0614 336.899 61.3305C335.599 62.5995 334.056 63.6062 332.358 64.293C330.659 64.9798 328.839 65.3333 327 65.3333C325.161 65.3333 323.341 64.9798 321.642 64.293C319.944 63.6062 318.401 62.5995 317.101 61.3305C315.8 60.0614 314.769 58.5548 314.066 56.8967C313.362 55.2386 313 53.4614 313 51.6667L327 51.6667H341Z" stroke="#017AFF" stroke-width="4" mask="url(#path-9-inside-1)"/>
<path d="M343.666 38.6667C343.666 36.0893 341.577 34 339 34C336.422 34 334.333 36.0893 334.333 38.6667" stroke="#017AFF" stroke-width="2"/>
<path d="M319.666 38.6667C319.666 36.0893 317.577 34 315 34C312.422 34 310.333 36.0893 310.333 38.6667" stroke="#017AFF" stroke-width="2"/>
<circle cx="327" cy="44" r="3" stroke="#017AFF" stroke-width="2"/>
<path d="M327 87C305.461 87 288 69.5391 288 48H286C286 70.6437 304.356 89 327 89V87ZM366 48C366 69.5391 348.539 87 327 87V89C349.644 89 368 70.6437 368 48H366ZM327 9C348.539 9 366 26.4609 366 48H368C368 25.3563 349.644 7 327 7V9ZM327 7C304.356 7 286 25.3563 286 48H288C288 26.4609 305.461 9 327 9V7Z" fill="#017AFF"/>
<g clip-path="url(#clip0)">
<path d="M34.2305 187.08L44.1921 224.165" stroke="#017AFF" stroke-width="2"/>
<path d="M20.665 210.592L57.7566 200.653" stroke="#017AFF" stroke-width="2"/>
<path d="M22.873 196.196L56.1447 215.392" stroke="#017AFF" stroke-width="2"/>
<path d="M29.791 221.95L48.9748 188.699" stroke="#017AFF" stroke-width="2"/>
</g>
<path d="M47.2529 235.561C30.7155 239.992 13.7087 230.18 9.26729 213.646L7.33544 214.163C12.0634 231.765 30.1674 242.21 47.7718 237.493L47.2529 235.561ZM69.1547 197.599C73.5961 214.134 63.7904 231.13 47.2529 235.561L47.7718 237.493C65.3762 232.775 75.8145 214.683 71.0865 197.081L69.1547 197.599ZM31.169 175.684C47.7065 171.252 64.7132 181.064 69.1547 197.599L71.0865 197.081C66.3586 179.48 48.2546 169.035 30.6502 173.752L31.169 175.684ZM30.6502 173.752C13.0458 178.469 2.60745 196.562 7.33544 214.163L9.26729 213.646C4.82584 197.111 14.6316 180.115 31.169 175.684L30.6502 173.752Z" fill="#017AFF"/>
<path d="M273.652 408.661L267.317 423.192L276.888 422.493" stroke="#48C5B5" stroke-width="2"/>
<mask id="path-22-inside-2" fill="white">
<path d="M288.717 432.366C288.16 434.77 287.124 437.039 285.667 439.042C284.211 441.046 282.362 442.745 280.227 444.043C278.092 445.341 275.712 446.212 273.223 446.607C270.735 447.001 268.186 446.912 265.723 446.343C263.26 445.774 260.93 444.738 258.868 443.292C256.805 441.847 255.049 440.021 253.701 437.919C252.353 435.817 251.438 433.48 251.01 431.041C250.581 428.602 250.647 426.109 251.203 423.705L269.96 428.035L288.717 432.366Z"/>
</mask>
<path d="M288.717 432.366C288.16 434.77 287.124 437.039 285.667 439.042C284.211 441.046 282.362 442.745 280.227 444.043C278.092 445.341 275.712 446.212 273.223 446.607C270.735 447.001 268.186 446.912 265.723 446.343C263.26 445.774 260.93 444.738 258.868 443.292C256.805 441.847 255.049 440.021 253.701 437.919C252.353 435.817 251.438 433.48 251.01 431.041C250.581 428.602 250.647 426.109 251.203 423.705L269.96 428.035L288.717 432.366Z" stroke="#48C5B5" stroke-width="4" mask="url(#path-22-inside-2)"/>
<path d="M267.738 409.177C268.744 404.832 271.498 402.519 275.197 403.373C278.897 404.227 280.355 407.512 279.349 411.858M267.635 409.624C266.094 416.282 260.846 420.757 255.913 419.618C250.98 418.479 248.23 412.158 249.771 405.5C251.312 398.841 256.56 394.367 261.493 395.505C266.426 396.644 269.176 402.965 267.635 409.624ZM297.109 416.429C295.568 423.087 290.32 427.562 285.387 426.423C280.455 425.284 277.705 418.963 279.246 412.304C280.787 405.646 286.035 401.171 290.968 402.31C295.901 403.449 298.65 409.77 297.109 416.429Z" stroke="#48C5B5" stroke-width="2"/>
<path d="M262.014 474.565C232.954 467.857 214.849 438.864 221.573 409.809L219.624 409.359C212.651 439.49 231.427 469.557 261.563 476.514L262.014 474.565ZM326.805 434.103C320.081 463.159 291.073 481.274 262.014 474.565L261.563 476.514C291.698 483.471 321.78 464.685 328.754 434.553L326.805 434.103ZM286.365 369.347C315.424 376.055 333.53 405.048 326.805 434.103L328.754 434.553C335.727 404.422 316.951 374.355 286.816 367.398L286.365 369.347ZM286.816 367.398C256.681 360.441 226.598 379.227 219.624 409.359L221.573 409.809C228.298 380.753 257.306 362.638 286.365 369.347L286.816 367.398Z" fill="#48C5B5"/>
<defs>
<clipPath id="clip0">
<rect width="38.4" height="38.4" fill="white" transform="matrix(0.965926 -0.258819 0.259418 0.965765 15.6846 192.049)"/>
</clipPath>
</defs>
</svg>
