<svg width="310" height="158" viewBox="0 0 310 158" fill="none" xmlns="http://www.w3.org/2000/svg">
<path d="M3.85162 77.8621C5.59042 58.056 23.0564 43.4048 42.863 45.1376C62.6696 46.8705 77.3164 64.3312 75.5776 84.1373C73.8388 103.943 56.3728 118.595 36.5663 116.862C16.7597 115.129 2.11282 97.6681 3.85162 77.8621Z" fill="#48C5B5"/>
<mask id="path-2-inside-1" fill="white">
<path d="M52.576 85.4375C52.421 87.2035 51.9196 88.9219 51.1005 90.4944C50.2814 92.0668 49.1606 93.4627 47.8021 94.6022C46.4437 95.7418 44.8742 96.6026 43.1832 97.1357C41.4922 97.6688 39.7128 97.8637 37.9467 97.7092C36.1806 97.5546 34.4624 97.0538 32.89 96.2352C31.3177 95.4166 29.9221 94.2963 28.7829 92.9383C27.6437 91.5802 26.7833 90.011 26.2506 88.3203C25.718 86.6295 25.5237 84.8503 25.6787 83.0843L39.1274 84.2609L52.576 85.4375Z"/>
</mask>
<path d="M52.576 85.4375C52.421 87.2035 51.9196 88.9219 51.1005 90.4944C50.2814 92.0668 49.1606 93.4627 47.8021 94.6022C46.4437 95.7418 44.8742 96.6026 43.1832 97.1357C41.4922 97.6688 39.7128 97.8637 37.9467 97.7092C36.1806 97.5546 34.4624 97.0538 32.89 96.2352C31.3177 95.4166 29.9221 94.2963 28.7829 92.9383C27.6437 91.5802 26.7833 90.011 26.2506 88.3203C25.718 86.6295 25.5237 84.8503 25.6787 83.0843L39.1274 84.2609L52.576 85.4375Z" stroke="white" stroke-width="4" mask="url(#path-2-inside-1)"/>
<circle r="3.2" transform="matrix(0.996195 0.0871557 -0.087455 0.996169 28.7054 69.1952)" stroke="white" stroke-width="2"/>
<circle r="3.2" transform="matrix(0.996195 0.0871557 -0.087455 0.996169 52.0159 71.2346)" stroke="white" stroke-width="2"/>
<line y1="-1" x2="13.2" y2="-1" transform="matrix(0.454268 -0.890982 0.890894 0.453981 36.7793 80.1405)" stroke="white" stroke-width="2"/>
<g clip-path="url(#clip0)">
<path d="M257.464 86.3316L267.477 133.276" stroke="#017AFF" stroke-width="2"/>
<path d="M238.995 114.793L285.946 104.814" stroke="#017AFF" stroke-width="2"/>
<path d="M242.691 96.9688L282.971 123.106" stroke="#017AFF" stroke-width="2"/>
<path d="M249.645 129.569L275.764 89.3176" stroke="#017AFF" stroke-width="2"/>
</g>
<path d="M270.605 147.946C249.537 152.424 228.815 138.977 224.322 117.912L222.366 118.328C227.089 140.473 248.874 154.61 271.022 149.902L270.605 147.946ZM300.618 101.695C305.111 122.76 291.674 143.467 270.605 147.946L271.022 149.902C293.171 145.194 307.297 123.425 302.574 101.279L300.618 101.695ZM254.335 71.6615C275.403 67.1833 296.125 80.6298 300.618 101.695L302.574 101.279C297.85 79.1337 276.066 64.9976 253.917 69.7055L254.335 71.6615ZM253.917 69.7055C231.768 74.4134 217.642 96.1824 222.366 118.328L224.322 117.912C219.829 96.8469 233.266 76.1398 254.335 71.6615L253.917 69.7055Z" fill="#017AFF"/>
<path d="M95 60C95 26.8629 121.863 0 155 0C188.137 0 215 26.8629 215 60C215 93.1371 188.137 120 155 120C121.863 120 95 93.1371 95 60Z" fill="white"/>
<g clip-path="url(#clip1)">
<path d="M173 35L149 96" stroke="#FC7B33" stroke-width="2"/>
<path d="M138 96L149 69" stroke="#FC7B33" stroke-width="2"/>
<path d="M146 35H168" stroke="#FC7B33" stroke-width="2"/>
<path d="M144 39H166" stroke="#FC7B33" stroke-width="2"/>
<path d="M143 43H165" stroke="#FC7B33" stroke-width="2"/>
<path d="M141 47H163" stroke="#FC7B33" stroke-width="2"/>
<path d="M139 51H161" stroke="#FC7B33" stroke-width="2"/>
<path d="M138 55H160" stroke="#FC7B33" stroke-width="2"/>
<path d="M136 59H158" stroke="#FC7B33" stroke-width="2"/>
<path d="M135 63H157" stroke="#FC7B33" stroke-width="2"/>
</g>
<defs>
<clipPath id="clip0">
<rect width="48" height="48" fill="white" transform="matrix(0.978148 -0.207912 0.2086 0.978001 233.988 91.3214)"/>
</clipPath>
<clipPath id="clip1">
<rect width="72" height="72" fill="white" transform="translate(119 24)"/>
</clipPath>
</defs>
</svg>
