<svg width="72" height="71" viewBox="0 0 72 71" fill="none" xmlns="http://www.w3.org/2000/svg">
<path d="M9.34752 26.6296C14.1262 11.9225 29.9225 3.87385 44.6296 8.65248C59.3367 13.4311 67.3853 29.2274 62.6067 43.9345C57.8281 58.6416 42.0317 66.6903 27.3246 61.9116C12.6175 57.133 4.56889 41.3367 9.34752 26.6296Z" fill="#D886FF"/>
<g clip-path="url(#clip0)">
<ellipse cx="38.2117" cy="28.4027" rx="10.7333" ry="3.96667" transform="rotate(18 38.2117 28.4027)" stroke="white" stroke-width="2"/>
<path d="M43.5889 46.5877C43.4184 47.1122 42.9856 47.5459 42.3152 47.8638C41.6447 48.1817 40.7497 48.3778 39.6813 48.4407C38.6129 48.5036 37.3919 48.4322 36.0882 48.2305C34.7845 48.0289 33.4235 47.7009 32.083 47.2653C30.7425 46.8298 29.4486 46.2951 28.2753 45.692C27.1021 45.0888 26.0724 44.429 25.245 43.7501C24.4176 43.0711 23.8088 42.3865 23.4532 41.7352C23.0977 41.0839 23.0024 40.4787 23.1729 39.9541" stroke="white" stroke-width="2"/>
<path d="M45.1748 41.7056C45.0044 42.2301 44.5716 42.6638 43.9011 42.9817C43.2306 43.2997 42.3356 43.4957 41.2672 43.5586C40.1988 43.6215 38.9779 43.5501 37.6742 43.3485C36.3704 43.1468 35.0095 42.8188 33.6689 42.3832C32.3284 41.9477 31.0346 41.4131 29.8613 40.8099C28.688 40.2068 27.6583 39.5469 26.8309 38.868C26.0035 38.1891 25.3947 37.5044 25.0392 36.8531C24.6836 36.2018 24.5884 35.5966 24.7588 35.072" stroke="white" stroke-width="2"/>
<path d="M46.7617 36.8235C46.5913 37.3481 46.1585 37.7817 45.488 38.0996C44.8175 38.4176 43.9225 38.6136 42.8541 38.6765C41.7857 38.7395 40.5648 38.6681 39.2611 38.4664C37.9574 38.2647 36.5964 37.9367 35.2558 37.5012C33.9153 37.0656 32.6215 36.531 31.4482 35.9278C30.2749 35.3247 29.2452 34.6648 28.4178 33.9859C27.5904 33.307 26.9816 32.6223 26.6261 31.971C26.2705 31.3197 26.1753 30.7145 26.3457 30.1899" stroke="white" stroke-width="2"/>
<path d="M23.1728 39.9541L27.9316 25.3079" stroke="white" stroke-width="2"/>
<path d="M43.5888 46.5877L48.3477 31.9414" stroke="white" stroke-width="2"/>
</g>
<defs>
<clipPath id="clip0">
<rect width="33.6" height="33.6" fill="white" transform="translate(25.1904 14.1128) rotate(18)"/>
</clipPath>
</defs>
</svg>
