<svg width="217" height="186" viewBox="0 0 217 186" fill="none" xmlns="http://www.w3.org/2000/svg">
<path d="M131.852 35.8621C133.59 16.056 151.056 1.40475 170.863 3.13761C190.67 4.87046 205.316 22.3312 203.578 42.1373C201.839 61.9434 184.373 76.5946 164.566 74.8617C144.76 73.1289 130.113 55.6681 131.852 35.8621Z" fill="#48C5B5"/>
<mask id="path-2-inside-1_1740:16316" fill="white">
<path d="M179.874 44.5807C179.732 46.1897 179.268 47.7546 178.507 49.186C177.745 50.6174 176.702 51.8873 175.437 52.9231C174.171 53.9589 172.708 54.7404 171.131 55.2229C169.554 55.7055 167.894 55.8796 166.246 55.7354C164.598 55.5912 162.993 55.1314 161.524 54.3824C160.055 53.6334 158.751 52.6098 157.685 51.3701C156.62 50.1303 155.814 48.6987 155.313 47.1569C154.813 45.6151 154.628 43.9934 154.77 42.3843L167.322 43.4825L179.874 44.5807Z"/>
</mask>
<path d="M179.874 44.5807C179.732 46.1897 179.268 47.7546 178.507 49.186C177.745 50.6174 176.702 51.8873 175.437 52.9231C174.171 53.9589 172.708 54.7404 171.131 55.2229C169.554 55.7055 167.894 55.8796 166.246 55.7354C164.598 55.5912 162.993 55.1314 161.524 54.3824C160.055 53.6334 158.751 52.6098 157.685 51.3701C156.62 50.1303 155.814 48.6987 155.313 47.1569C154.813 45.6151 154.628 43.9934 154.77 42.3843L167.322 43.4825L179.874 44.5807Z" stroke="white" stroke-width="4" mask="url(#path-2-inside-1_1740:16316)"/>
<path d="M162.672 30.1263C162.517 31.8869 160.964 33.1892 159.204 33.0352C157.443 32.8812 156.141 31.3291 156.296 29.5685C156.45 27.808 158.003 26.5057 159.764 26.6597C161.524 26.8137 162.826 28.3658 162.672 30.1263Z" stroke="white" stroke-width="2"/>
<path d="M183.592 31.9567C183.437 33.7172 181.885 35.0195 180.124 34.8655C178.364 34.7115 177.062 33.1594 177.216 31.3989C177.371 29.6383 178.923 28.336 180.684 28.49C182.445 28.6441 183.746 30.1961 183.592 31.9567Z" stroke="white" stroke-width="2"/>
<path d="M170.925 23.0187L174.021 37.5407L162.97 39.8342" stroke="white" stroke-width="2"/>
<g clip-path="url(#clip0_1740:16316)">
<path d="M178.4 147.405C174.487 146.646 164.586 144.041 159.233 147.087C156.105 148.867 155.766 151.841 157.091 154.334M157.091 154.334C158.601 157.175 162.272 159.391 166.443 158.504C169.705 157.811 172.342 154.183 169.689 151.339C167.441 148.929 161.616 148.206 157.091 154.334ZM157.091 154.334C156.81 154.714 156.534 155.121 156.264 155.556C154.587 158.257 153.79 160.72 153.566 162.945M188.835 144.118C185.226 149.676 175.758 148.352 166.793 142.538C157.828 136.725 152.76 128.625 156.37 123.067L159.637 118.035L169.153 124.205L164.796 130.914C164.796 130.914 163.698 132.586 170.424 136.947C177.15 141.309 178.23 139.625 178.23 139.625L182.587 132.916L192.103 139.086L188.835 144.118Z" stroke="#017AFF" stroke-width="2"/>
</g>
<path d="M0 89C0 55.8629 26.8629 29 60 29C93.1371 29 120 55.8629 120 89C120 122.137 93.1371 149 60 149C26.8629 149 0 122.137 0 89Z" fill="white"/>
<path d="M77.7408 103.439C83.4205 99.5163 87 93.7905 87 87.4138C87 75.5873 74.6878 66 59.5 66C44.3122 66 32 75.5873 32 87.4138C32 99.2403 44.3122 108.828 59.5 108.828C61.5289 108.828 63.5064 108.657 65.4101 108.332L81.6857 115C77.2349 109.704 77.7408 103.439 77.7408 103.439Z" stroke="#FC7B33" stroke-width="2"/>
<defs>
<clipPath id="clip0_1740:16316">
<rect width="48" height="48" fill="white" transform="matrix(0.978148 -0.207912 0.2086 0.978001 140.988 119.954)"/>
</clipPath>
</defs>
</svg>
