<svg width="56" height="56" viewBox="0 0 56 56" fill="none" xmlns="http://www.w3.org/2000/svg">
<path d="M0 28C0 12.536 12.536 0 28 0C43.464 0 56 12.536 56 28C56 43.464 43.464 56 28 56C12.536 56 0 43.464 0 28Z" fill="#FC7B33"/>
<path d="M36.2791 34.7382C38.9296 32.9075 40.6 30.2355 40.6 27.2597C40.6 21.7407 34.8543 17.2666 27.7667 17.2666C20.679 17.2666 14.9333 21.7407 14.9333 27.2597C14.9333 32.7788 20.679 37.2528 27.7667 37.2528C28.7135 37.2528 29.6363 37.173 30.5247 37.0215L38.12 40.1333C36.043 37.662 36.2791 34.7382 36.2791 34.7382Z" stroke="white" stroke-width="2"/>
</svg>
